<svg id="Layer_1" data-name="Layer 1" xmlns="http://www.w3.org/2000/svg" viewBox="0 0 1924.46 1080"><defs><style>.cls-1{fill:#1a2238;}.cls-2{fill:#29375b;}</style></defs><rect class="cls-1" x="4.46" width="1920" height="1080"/><path class="cls-2" d="M136,82.33c104.79-80.83,240-58,288-49.91C509.77,46.9,504.11,70.1,587,84c109.87,18.43,139.23-19.07,272.9-26.07C1019.16,49.59,1028.19,100.18,1171,86c126.48-12.56,129.9-53.28,239.83-65.79C1432.47,17.75,1660.15-4.88,1799,140c113.08,118,103.87,281,95,438-10.58,187.27-21.62,382.67-146,456-164.5,97-500.66-35.21-760-70-29.26-3.93-95.39-11.69-147.46,26.76-20,14.8-30.22,30.69-34.64,36.68C716.29,1148.81,151.28,1039.24,138,892c-1.14-12.6,1.75-25.65-4-48.7-15.75-63-66.78-83.41-100-120.3C-12.24,671.63-6.82,585.09,4,412c8.53-136.33,31.81-188.63,39-204C58.27,175.38,82.51,123.58,136,82.33Z" transform="translate(3.46 -1)"/></svg>