<?xml version="1.0" encoding="utf-8"?>
<!-- Generator: Adobe Illustrator 25.2.0, SVG Export Plug-In . SVG Version: 6.00 Build 0)  -->
<svg version="1.1" id="Layer_1" xmlns="http://www.w3.org/2000/svg" xmlns:xlink="http://www.w3.org/1999/xlink" x="0px" y="0px"
	 viewBox="0 0 1924.5 546.8" style="enable-background:new 0 0 1924.5 546.8;" xml:space="preserve">
<style type="text/css">
	.st0{fill:#29375B;}
	.st1{fill:#1A2238;}
</style>
<path class="st0" d="M141.1,37c106-41,242.8-29.4,291.4-25.3c86.8,7.3,81,19.1,164.9,26.1c111.1,9.3,140.9-9.7,276.1-13.2
	c161.1-4.2,170.3,21.4,314.7,14.2c128-6.4,131.4-27,242.6-33.4c21.9-1.2,252.2-12.7,392.7,60.7c114.4,59.8,105.1,142.5,96.1,222
	c-7.3,65.1-14.9,132.2-59.6,179.9c-26.4,28.2-55.7,38.9-88.1,51.3c-89.3,34-169.2,29.2-196.8,27.3C1391,533.9,1115.3,492.6,1003,484
	c-26.4-2-82-5.2-149.2,13.6c-21.5,6-36.4,12.1-42.3,14.4c-90.4,35.3-239.7,26.1-374.2,20.6c-174.6-7.1-261.3-5.2-341.2-46.8
	c-69.3-36-81.6-77.8-83.9-86.7c-4.2-16.1-0.5-19.8,0.7-59.1c2.3-74.6-12.5-78.4-5.4-135.9c8.6-69.1,32.2-95.6,39.5-103.4
	C62.4,84.2,87,58,141.1,37z"/>
<path class="st1" d="M82.4,52.1c55.3-39.6,139.6-25.3,161-21.7c50.1,8.5,64.7,26.1,112.8,31.2c55,5.9,102.2-10,133.9-24.7
	c0,0,0,0,0,0c44.2-6.2,93.8-17.4,101.4-18.7c54.6-9.3,86.1,22.5,194,38c0,0,42.6,6.1,94.9,6.8c118.4,1.5,187.7-33.5,258.6-50.2
	c131.1-30.9,139.3,31,342.6,35.3c231.1,4.9,336.1-72.6,394.9-9.5c22.8,24.6,13.2,43,20.6,183.3c11.3,211.7,38,258,2.8,293.2
	c-38.7,38.7-91,2.9-253.1-6.8c-83-5-61.7,3.9-410,21.7c-158.2,8.1-202.4,8.2-254.5,5.4c-117.9-6.3-128.2-19.4-232.5-28.5
	c-103.5-9-221.7-0.7-458.1,13.6C154.1,528.7,98.5,536,59,496c-33.2-33.6-33.6-82.6-34.4-180.5C23.5,181.2,22.8,94.8,82.4,52.1z"/>
</svg>
