<svg xmlns="http://www.w3.org/2000/svg" viewBox="0 0 696.36 845.57"><defs><style>.cls-1{fill:#2f2f2f;}.cls-10,.cls-2,.cls-30,.cls-31,.cls-6,.cls-7{fill:none;}.cls-2{stroke:#f9a826;}.cls-10,.cls-2,.cls-30,.cls-6,.cls-7,.cls-8{stroke-miterlimit:10;}.cls-2,.cls-30,.cls-7,.cls-8{stroke-width:3px;}.cls-3,.cls-8{fill:#3f3d56;}.cls-12,.cls-16,.cls-4{fill:#f9a826;}.cls-5{fill:#ccc;}.cls-30,.cls-6{stroke:#ccc;}.cls-6{stroke-width:2px;}.cls-10,.cls-7,.cls-8{stroke:#3f3d56;}.cls-9{fill:#e6e6e6;}.cls-10{stroke-width:4px;}.cls-11,.cls-12,.cls-13,.cls-14,.cls-16{isolation:isolate;}.cls-11,.cls-12,.cls-14,.cls-16{font-size:12px;}.cls-11,.cls-14{fill:#fff;}.cls-11,.cls-12{font-family:ArialMT, Arial;}.cls-14,.cls-16{font-family:Ubuntu-Regular, Ubuntu;}.cls-15{letter-spacing:-0.01em;}.cls-17{letter-spacing:0.01em;}.cls-18{letter-spacing:-0.02em;}.cls-19{letter-spacing:0em;}.cls-20{letter-spacing:-0.01em;}.cls-21{letter-spacing:0em;}.cls-22{letter-spacing:-0.01em;}.cls-23{letter-spacing:-0.05em;}.cls-24{letter-spacing:0.01em;}.cls-25{letter-spacing:0.02em;}.cls-26{letter-spacing:0.01em;}.cls-27{letter-spacing:-0.01em;}.cls-28{letter-spacing:-0.01em;}.cls-29{letter-spacing:-0.03em;}</style></defs><g id="Layer_2" data-name="Layer 2"><g id="e7334088-53de-4589-99a2-090044ddfc90"><rect class="cls-1" x="74.26" width="622.1" height="727.1"/><path class="cls-2" d="M503,727.1H317.36a93,93,0,1,1,185.6,0Z"/><rect id="ac5bf8cc-574d-4509-9338-881c836fd832" class="cls-3" x="536.46" y="1.8" width="51.3" height="22"/><rect id="ad5a043d-52f1-4931-b771-e4991ef7f7f7" class="cls-4" x="281.66" y="1.8" width="61.8" height="22"/><rect id="e5d95e83-bdd9-4322-95a9-5a9c4b449a8f" class="cls-5" x="419.66" y="1.8" width="51.3" height="22"/><line class="cls-6" x1="502.56" y1="142" x2="502.56" y2="104.6"/><rect class="cls-7" x="258.46" y="183.8" width="196" height="55"/><line class="cls-6" x1="204.56" y1="147.5" x2="204.56" y2="107.1"/><line class="cls-6" x1="500.26" y1="372" x2="500.26" y2="331.6"/><line class="cls-6" x1="355.36" y1="332.3" x2="302.36" y2="332.3"/><rect class="cls-8" x="107.66" y="305.8" width="196" height="55"/><rect class="cls-8" x="106.56" y="51.7" width="196" height="55"/><rect class="cls-8" x="404.56" y="49.1" width="196" height="55"/><line class="cls-6" x1="354.86" y1="184.1" x2="354.86" y2="143.7"/><rect class="cls-5" x="354.86" y="331.3" width="244.3" height="2"/><rect class="cls-5" x="202.36" y="142" width="395.9" height="2"/><rect class="cls-5" x="353.86" y="333.3" width="2" height="128.5"/><rect class="cls-5" x="597.66" y="141.7" width="2" height="190.7"/><rect class="cls-5" x="354.86" y="459.8" width="244.3" height="2"/><line class="cls-6" x1="355.36" y1="460.8" x2="302.36" y2="460.8"/><circle id="abdb3fbf-f68e-433e-a33f-153626b38c76" class="cls-4" cx="502.56" cy="142" r="14.2"/><circle id="abdb3fbf-f68e-433e-a33f-153626b38c76-2" data-name="abdb3fbf-f68e-433e-a33f-153626b38c76" class="cls-4" cx="355.36" cy="332.3" r="14.2"/><circle id="abdb3fbf-f68e-433e-a33f-153626b38c76-3" data-name="abdb3fbf-f68e-433e-a33f-153626b38c76" class="cls-9" cx="354.26" cy="143.7" r="14.2" transform="translate(85.93 416) rotate(-67.5)"/><circle id="abdb3fbf-f68e-433e-a33f-153626b38c76-4" data-name="abdb3fbf-f68e-433e-a33f-153626b38c76" class="cls-9" cx="500.26" cy="331.3" r="14.2"/><circle id="abdb3fbf-f68e-433e-a33f-153626b38c76-5" data-name="abdb3fbf-f68e-433e-a33f-153626b38c76" class="cls-3" cx="204.32" cy="140.98" r="14.2" transform="translate(32.43 320.08) rotate(-80.78)"/><circle id="abdb3fbf-f68e-433e-a33f-153626b38c76-6" data-name="abdb3fbf-f68e-433e-a33f-153626b38c76" class="cls-3" cx="354.86" cy="460.3" r="14.2"/><path class="cls-10" d="M126.06,691.4a93.42,93.42,0,0,1-51.8,4.2V513.3a93,93,0,0,1,51.8,178.1Z"/><rect class="cls-7" x="402.26" y="372.2" width="196" height="55"/><text class="cls-11" transform="translate(165.38 338.01)">Joined </text><text class="cls-12" transform="translate(201.18 338.01)">SWD</text><rect class="cls-7" x="107.66" y="433.3" width="196" height="55"/><circle id="abdb3fbf-f68e-433e-a33f-153626b38c76-7" data-name="abdb3fbf-f68e-433e-a33f-153626b38c76" class="cls-3" cx="598.66" cy="231.8" r="14.2"/><g class="cls-13"><text class="cls-14" transform="translate(125.26 74.36)">First got in <tspan class="cls-15" x="61.37" y="0">t</tspan><tspan x="66.02" y="0">ouch with </tspan></text><text class="cls-16" transform="translate(247.46 74.36)">HTML</text><text class="cls-14" transform="translate(279.36 74.36)">,</text><text class="cls-16" transform="translate(125.26 88.76)"><tspan class="cls-17">C</tspan><tspan x="7.56" y="0">SS</tspan></text><text class="cls-14" transform="translate(145.46 88.76)"><tspan xml:space="preserve"> and </tspan></text><text class="cls-16" transform="translate(171.26 88.76)">JS</text><text class="cls-14" transform="translate(183.66 88.76)"><tspan xml:space="preserve"> in </tspan></text><text class="cls-16" transform="translate(199.06 88.76)">MIMO</text><text class="cls-14" transform="translate(232.56 88.76)"><tspan xml:space="preserve"> app</tspan></text></g><g class="cls-13"><text class="cls-14" transform="translate(429.71 80.57)">Got <tspan class="cls-18" x="22.74" y="0">m</tspan><tspan class="cls-19" x="32.86" y="0">y </tspan><tspan class="cls-20" x="41.59" y="0">o</tspan><tspan x="48.52" y="0">wn first </tspan></text><text class="cls-16" transform="translate(522.91 80.57)"><tspan class="cls-20">c</tspan><tspan class="cls-21" x="5.42" y="0">ompu</tspan><tspan class="cls-22" x="36.79" y="0">t</tspan><tspan x="41.5" y="0">er</tspan></text></g><g class="cls-13"><text class="cls-16" transform="translate(177.29 167.53)">2</text><text class="cls-14" transform="translate(184.09 167.53)">0</text><text class="cls-16" transform="translate(190.79 167.53)">2</text><text class="cls-14" transform="translate(197.59 167.53)">0 </text><text class="cls-16" transform="translate(207.09 167.53)">A</text><text class="cls-14" transform="translate(215.09 167.53)">pril</text></g><g class="cls-13"><text class="cls-16" transform="translate(331.31 126.8)">2</text><text class="cls-14" transform="translate(338.11 126.8)">0</text><text class="cls-16" transform="translate(344.81 126.8)">2</text><text class="cls-14" transform="translate(351.61 126.8)">0 </text><text class="cls-16" transform="translate(361.11 126.8)">J</text><text class="cls-14" transform="translate(367.11 126.8)">uly</text></g><g class="cls-13"><text class="cls-16" transform="translate(460.2 169.75)">2</text><text class="cls-14" transform="translate(467 169.75)">0</text><text class="cls-16" transform="translate(473.7 169.75)">2</text><text class="cls-14" transform="translate(480.5 169.75)">0 </text><text class="cls-16" transform="translate(490 169.75)">D</text><text class="cls-14" transform="translate(498.6 169.75)">ecember</text></g><g class="cls-13"><text class="cls-14" transform="translate(268.43 200.85)">Joined a </text><text class="cls-16" transform="translate(317.03 200.85)">free <tspan class="cls-23" x="25.45" y="0">F</tspan><tspan x="31.28" y="0">acebook </tspan></text><text class="cls-14" transform="translate(397.73 200.85)">learning </text><text class="cls-14" transform="translate(268.43 215.25)">Group and practised with </text><text class="cls-14" transform="translate(268.43 229.65)">My fathe<tspan class="cls-24" x="48.47" y="0">r</tspan><tspan class="cls-19" x="53.27" y="0">’s </tspan></text><text class="cls-16" transform="translate(332.43 229.65)"><tspan class="cls-20">c</tspan><tspan class="cls-21" x="5.42" y="0">ompu</tspan><tspan class="cls-22" x="36.79" y="0">t</tspan><tspan x="41.5" y="0">er</tspan></text></g><g class="cls-13"><text class="cls-16" transform="translate(616.59 237.02)">2</text><text class="cls-14" transform="translate(623.39 237.02)">0</text><text class="cls-16" transform="translate(630.09 237.02)">2</text><text class="cls-14" transform="translate(636.89 237.02)">1</text></g><g class="cls-13"><text class="cls-16" transform="translate(464.57 311.3)">2</text><text class="cls-14" transform="translate(471.37 311.3)">0</text><text class="cls-16" transform="translate(478.07 311.3)">2</text><text class="cls-14" transform="translate(484.87 311.3)">1 </text><text class="cls-16" transform="translate(494.37 311.3)">J</text><text class="cls-14" transform="translate(500.37 311.3)">anua<tspan class="cls-25" x="26.3" y="0">r</tspan><tspan x="31.19" y="0">y</tspan></text></g><g class="cls-13"><text class="cls-16" transform="translate(319.12 313.55)">2</text><text class="cls-14" transform="translate(325.92 313.55)">0</text><text class="cls-16" transform="translate(332.62 313.55)">2</text><text class="cls-14" transform="translate(339.42 313.55)">1 </text><text class="cls-16" transform="translate(348.92 313.55)">J</text><text class="cls-14" transform="translate(354.92 313.55)">anua<tspan class="cls-25" x="26.3" y="0">r</tspan><tspan x="31.19" y="0">y</tspan></text></g><g class="cls-13"><text class="cls-16" transform="translate(316.09 487.35)">2</text><text class="cls-14" transform="translate(322.89 487.35)">0</text><text class="cls-16" transform="translate(329.59 487.35)">2</text><text class="cls-14" transform="translate(336.39 487.35)">1 </text><text class="cls-16" transform="translate(345.89 487.35)">F</text><text class="cls-14" transform="translate(352.39 487.35)">ebrua<tspan class="cls-25" x="31.56" y="0">r</tspan><tspan x="36.44" y="0">y</tspan></text></g><g class="cls-13"><text class="cls-14" transform="translate(466.82 403.62)">Joined </text><text class="cls-16" transform="translate(506.42 403.62)"><tspan class="cls-20">B</tspan><tspan x="7.56" y="0">WD</tspan></text></g><g class="cls-13"><text class="cls-14" transform="translate(114.35 464.75)">More and more </text><text class="cls-16" transform="translate(200.55 464.75)">HTML</text><text class="cls-14" transform="translate(232.45 464.75)">,</text><text class="cls-16" transform="translate(235.35 464.75)"> <tspan class="cls-26" x="2.77" y="0">C</tspan><tspan class="cls-19" x="10.33" y="0">SS</tspan></text><text class="cls-14" transform="translate(258.35 464.75)"><tspan xml:space="preserve"> and</tspan></text><text class="cls-16" transform="translate(281.35 464.75)"><tspan xml:space="preserve"> JS</tspan></text></g><rect class="cls-5" x="598.66" y="459.8" width="2" height="209"/><line class="cls-6" x1="599.66" y1="544.4" x2="546.66" y2="544.4"/><circle id="abdb3fbf-f68e-433e-a33f-153626b38c76-8" data-name="abdb3fbf-f68e-433e-a33f-153626b38c76" class="cls-9" cx="599.16" cy="544.4" r="14.2" transform="translate(-34.19 1048.62) rotate(-80.78)"/><rect class="cls-8" x="348.86" y="516.9" width="196" height="55"/><g class="cls-13"><text class="cls-16" transform="translate(620.59 548.5)">2</text><text class="cls-14" transform="translate(627.39 548.5)">0</text><text class="cls-16" transform="translate(634.09 548.5)">2</text><text class="cls-14" transform="translate(640.89 548.5)">1 </text><text class="cls-16" transform="translate(650.39 548.5)">M</text><text class="cls-14" transform="translate(660.89 548.5)"><tspan class="cls-27">a</tspan><tspan x="6.08" y="0">y</tspan></text></g><g class="cls-13"><text class="cls-14" transform="translate(388.14 541.16)"><tspan class="cls-28">L</tspan><tspan x="6.08" y="0">earned libraries li</tspan><tspan class="cls-29" x="100.21" y="0">k</tspan><tspan x="106.16" y="0">e </tspan></text><text class="cls-16" transform="translate(388.14 555.56)">Bootstrap </text><text class="cls-14" transform="translate(445.74 555.56)">and</text><text class="cls-16" transform="translate(465.94 555.56)"><tspan xml:space="preserve"> jQue</tspan><tspan class="cls-25" x="28.74" y="0">r</tspan><tspan class="cls-19" x="33.62" y="0">y</tspan></text></g><circle id="abdb3fbf-f68e-433e-a33f-153626b38c76-9" data-name="abdb3fbf-f68e-433e-a33f-153626b38c76" class="cls-4" cx="600.66" cy="668.8" r="14.2" transform="translate(-155.72 1154.57) rotate(-80.78)"/><g class="cls-13"><text class="cls-14" transform="translate(532.94 707.73)">More </text><text class="cls-16" transform="translate(564.54 707.73)">Journey </text><text class="cls-14" transform="translate(611.54 707.73)">Ahead</text></g><path class="cls-30" d="M308,727.1H129a93.08,93.08,0,0,1,176.5-7.6A67.53,67.53,0,0,1,308,727.1Z"/><path class="cls-31" d="M308,727.1a93.05,93.05,0,1,1-179,.1H308Z"/><path class="cls-31" d="M60.06,517.5a84.36,84.36,0,0,1,14.2-4.1V695.6a93,93,0,0,1-14.2-178.1Z"/><path class="cls-31" d="M317.36,727.1h185.7a93,93,0,0,1-179.8,27.1A91,91,0,0,1,317.36,727.1Z"/><rect class="cls-31" x="74.26" width="622.1" height="727.1"/></g></g></svg>