<svg xmlns="http://www.w3.org/2000/svg" viewBox="0 0 1925.62 1100.97"><defs><style>.cls-1{fill:#29375b;}.cls-2{fill:#1a2238;}</style></defs><g id="Layer_2" data-name="Layer 2"><g id="Layer_1-2" data-name="Layer 1"><path class="cls-1" d="M138.39,84.4C190-1.41,336.58-27.73,426.39,33.23c67.25,45.65,52.07,105.82,109,134.18,97.59,48.63,172.76-113,327-108,139.55,4.52,162,139.56,287,128.5,121-10.71,135.44-140.55,264-167.16,145.55-30.13,277.58,105.63,320,147.83,114.63,114,237,337.34,176,551.51-26.25,92.2-92.66,204.42-203,259.27-291,144.67-608.79-248.24-796-86.42-63.37,54.77-31,103.28-102,160.33-179,143.84-499.41-72.32-672-188.76C40,799.43,10.93,764,2.39,718.92c-22.38-118,119.3-178.66,142-370.7C161,208.07,95.5,155.73,138.39,84.4Z"/><path class="cls-2" d="M56.39,157.37C96,101.46,158.53,32.81,242.86,18.86a154.73,154.73,0,0,1,34.55-2.16c68.72,3.92,111.85,34.74,142.64,50C517,114.88,565.49,18.41,688.39,51c105.86,28.07,140.54,118.39,217.74,99.21,26-6.45,50.46-23.63,60.59-30.89,55.86-40,64.06-88,154.5-111.51C1265-29.61,1288.59,80,1475.6,71.64c131.92-5.92,186.07-63.44,298.47-17.18,47.27,19.45,86.17,35.46,116.55,82.24,76.68,118.08-11.1,262.48.94,628.5,4.49,136.13,17.88,154.3,0,195.17-58.32,133.33-257.17,68.83-601.68,54-562.94-24.2-844.41-36.31-1015.75,2.46-31.63,7.16-109.89,26.55-168.66-29.46C60.56,944.57,47.44,851.87,23,668.22-4.63,460,1.34,353.78,7.88,299.84c1.28-10.56,2.61-19.4,2.84-20.74A339.44,339.44,0,0,1,56.39,157.37Z"/></g></g></svg>