<svg xmlns="http://www.w3.org/2000/svg" viewBox="0 0 1740.54 1002.87"><defs><style>.cls-1{fill:#f4db7d;}.cls-2{fill:#9daaf2;}</style></defs><g id="Layer_2" data-name="Layer 2"><g id="Layer_1-2" data-name="Layer 1"><path class="cls-1" d="M485,0C667.25,5.37,764.27,72,809,111c83.26,72.5,74.69,126.69,203,460,84.39,219.2,114.32,263.89,86,321C1038.6,1011.89,813,1004,756,1002,561,995.17,322.37,898.67,303,763c-10.3-72.3,46.44-122.2,17-160-39.49-50.71-150.18,28.14-237-27C-1.12,522.55-.26,382.92,0,333c.21-34.36,2-126.46,64-211C82.38,97,113.3,54.81,168,34c48.17-18.31,76.6-5.57,149-7C356.05,26.23,413.88,21.23,485,0Z"/><path class="cls-2" d="M770,672.76c137.55,151.72,96.18,246,189,288.14,106.09,48.18,167.73-71.5,471-120.79,47.89-7.79,74.57-9.39,114-28.82,122.55-60.37,223.51-221.56,190-320.28-24.67-72.71-99.83-45.4-226-130.78C1321.94,234.29,1352.78,85.1,1200,16.67c-28.45-12.74-129.69-7.93-331,2.22C647.28,30.07,618.84,37.61,588,64.33,492.52,147.19,464.23,336.46,523,460,573.67,566.29,648,538.14,770,672.76Z"/></g></g></svg>