<svg xmlns="http://www.w3.org/2000/svg" viewBox="0 0 1751.75 1053.38"><defs><style>.cls-1{fill:#29375b;}.cls-2{fill:#ff6a3d;}.cls-3{fill:#f4db7d;}.cls-4{fill:#9daaf2;}</style></defs><g id="Layer_2" data-name="Layer 2"><g id="Layer_1-2" data-name="Layer 1"><path class="cls-1" d="M33.44,44.38c-44.43,57.25-19.5,170.5,10.29,236,26.71,58.73,58.7,82.12,70,149,9.14,54.17-2.89,91.87-5.15,111-15.46,130.89,323.53,326.17,748.24,399,237.33,40.7,600.68,103,693.94-59,77.7-135-72.78-354.83-178.3-509-139.77-204.22-307.89-309.94-423-347C750.83-39.54,746.1,47.5,296.92,11.38,177.6,1.79,77.53-12.43,33.44,44.38Z"/><path class="cls-2" d="M368,76.56c70.89,12.37,111-44.93,191.19-67C729.56-37.35,990,99.79,977.52,175.1c-11.67,70.22-257.13,65-265.92,131.2-11.46,86.19,401.56,144.27,397.24,223.84-4.59,84.35-474.87,195.73-603.09,28.24-68.63-89.65,7.78-197.77-79.45-295.11C332.11,158.18,174,200.09,150.48,127.9,134.19,78,190.61,12.38,240.4,9.82,288.46,7.36,302.17,65.09,368,76.56Z"/><path class="cls-3" d="M292,195.32c25.85,4.44,76.29,13.63,119,46.94,34.12,26.63,47.42,56.31,54.13,71.81,15.38,35.56,14.92,66.22,14.29,108.49-.62,41.52-6.78,58.35,3.85,91.08,6,18.4,15.23,35.36,22.68,45.17,58.39,76.8,254.51,40.69,277.06,89,8.58,18.38-31.27,53.22-111.33,122.15-71.4,61.49-106.26,93.55-142.4,106.24-31.34,11-140.74,44.81-257.36,7.92C105.42,831.5,30.6,668.47,75.66,570.86c28.16-61,88.25-64.2,90.44-114.27,4-91.3-180.68-133.78-165.18-196.14C14.62,205.36,176.64,175.52,292,195.32Z"/><path class="cls-4" d="M1241.43,348.51c55.29,92.65,148.41,117.72,233.62,197.19,247.66,231,284,262.62,275.64,316.13-16,102.15-175.12,158.19-203.13,168.05-196.34,69.13-405.62-31.4-513-81.18C910.44,891.12,685.48,756.77,722.49,669.84c41.67-97.84,385.93-83.17,386.35-139.7.1-13.6-26.22-27.49-78.86-55.25-48.09-25.38-77.82-34.74-158.47-65.91-113-43.66-154.67-59.23-159.48-91.65-1-6.89-.49-15.05,4.72-27.95C743.31,223.69,839.4,163.5,942,158.68c0,0,128.16-7,229.94,88.85,7.63,7.19,13.17,13,16.53,16.59C1218.05,295.36,1220.6,313.6,1241.43,348.51Z"/></g></g></svg>