<svg xmlns="http://www.w3.org/2000/svg" viewBox="0 0 1132.24 1168.32"><defs><style>.cls-1,.cls-10,.cls-11{fill:#f9a826;}.cls-2{fill:#f4db7d;}.cls-3{fill:#fffae9;}.cls-4,.cls-5{fill:none;}.cls-4{stroke:#ccc;stroke-width:2px;}.cls-4,.cls-5,.cls-6{stroke-miterlimit:10;}.cls-5,.cls-6{stroke:#3f3d56;stroke-width:3px;}.cls-6,.cls-7{fill:#3f3d56;}.cls-8{fill:#9daaf2;}.cls-10,.cls-11,.cls-12,.cls-9{isolation:isolate;font-family:Aldrich-Regular, Aldrich;}.cls-10,.cls-9{font-size:20.17px;}.cls-12,.cls-9{fill:#fff;}.cls-11,.cls-12{font-size:17.74px;}</style></defs><g id="Layer_2" data-name="Layer 2"><g id="e7334088-53de-4589-99a2-090044ddfc90"><g id="large_screen" data-name="large screen"><rect id="ac5bf8cc-574d-4509-9338-881c836fd832" class="cls-1" x="814.77" width="85.6" height="38.62"/><rect id="ad5a043d-52f1-4931-b771-e4991ef7f7f7" class="cls-2" x="260.09" width="132.91" height="38.62"/><rect id="e5d95e83-bdd9-4322-95a9-5a9c4b449a8f" class="cls-3" x="579.56" width="85.6" height="38.62"/><line class="cls-4" x1="788.55" y1="282.22" x2="788.55" y2="219.45"/><rect class="cls-5" x="400.9" y="352.7" width="311.3" height="92.09"/><line class="cls-4" x1="315.4" y1="291.2" x2="315.4" y2="223.51"/><line class="cls-4" x1="785.45" y1="599.33" x2="785.45" y2="531.63"/><line class="cls-4" x1="555.43" y1="533.3" x2="471.13" y2="533.3"/><rect class="cls-6" x="161.66" y="488.88" width="311.3" height="92.09"/><rect class="cls-7" x="158.24" y="130.62" width="311.3" height="92.09"/><rect class="cls-6" x="630.92" y="131.02" width="311.3" height="92.09"/><line class="cls-4" x1="553.85" y1="352.3" x2="553.85" y2="284.69"/><rect class="cls-3" x="554.64" y="531.63" width="388.05" height="3.26"/><rect class="cls-3" x="311.67" y="282.22" width="629.52" height="3.26"/><rect class="cls-3" x="553.13" y="534.89" width="3.02" height="216.04"/><rect class="cls-3" x="940.39" y="281.43" width="3.02" height="252.74"/><rect class="cls-3" x="554.64" y="746.87" width="388.05" height="3.26"/><line class="cls-4" x1="555.43" y1="748.54" x2="471.13" y2="748.54"/><ellipse id="abdb3fbf-f68e-433e-a33f-153626b38c76" class="cls-2" cx="788.87" cy="281.91" rx="22.57" ry="23.84"/><ellipse id="abdb3fbf-f68e-433e-a33f-153626b38c76-2" data-name="abdb3fbf-f68e-433e-a33f-153626b38c76" class="cls-2" cx="555.2" cy="532.9" rx="22.57" ry="23.84"/><ellipse id="abdb3fbf-f68e-433e-a33f-153626b38c76-3" data-name="abdb3fbf-f68e-433e-a33f-153626b38c76" class="cls-8" cx="553.13" cy="284.85" rx="22.57" ry="23.84"/><ellipse id="abdb3fbf-f68e-433e-a33f-153626b38c76-4" data-name="abdb3fbf-f68e-433e-a33f-153626b38c76" class="cls-8" cx="785.53" cy="531.23" rx="22.57" ry="23.84"/><ellipse id="abdb3fbf-f68e-433e-a33f-153626b38c76-5" data-name="abdb3fbf-f68e-433e-a33f-153626b38c76" class="cls-1" cx="314.77" cy="280" rx="22.57" ry="23.84"/><ellipse id="abdb3fbf-f68e-433e-a33f-153626b38c76-6" data-name="abdb3fbf-f68e-433e-a33f-153626b38c76" class="cls-1" cx="554.4" cy="748.06" rx="22.57" ry="23.84"/><rect class="cls-5" x="630.2" y="599.72" width="311.3" height="92.09"/><text class="cls-9" transform="translate(238.8 542.43) scale(0.95 1)">Joined </text><text class="cls-10" transform="translate(310.05 542.43) scale(0.95 1)">SWD</text><rect class="cls-5" x="161.66" y="702.46" width="311.3" height="92.09"/><ellipse id="abdb3fbf-f68e-433e-a33f-153626b38c76-7" data-name="abdb3fbf-f68e-433e-a33f-153626b38c76" class="cls-1" cx="940.07" cy="398.39" rx="22.57" ry="23.84"/><text class="cls-9" transform="translate(727.93 652.72) scale(0.95 1)">Joined </text><text class="cls-10" transform="translate(795.31 652.72) scale(0.95 1)">BWD</text><rect class="cls-3" x="941.9" y="746.87" width="3.02" height="351.35"/><line class="cls-4" x1="946.43" y1="922.15" x2="862.21" y2="922.15"/><ellipse id="abdb3fbf-f68e-433e-a33f-153626b38c76-8" data-name="abdb3fbf-f68e-433e-a33f-153626b38c76" class="cls-8" cx="941.74" cy="921.12" rx="22.57" ry="23.84"/><rect class="cls-6" x="550.43" y="875.27" width="311.3" height="92.09"/><rect id="ad5a043d-52f1-4931-b771-e4991ef7f7f7-2" data-name="ad5a043d-52f1-4931-b771-e4991ef7f7f7" class="cls-2" y="382.86" width="39.63" height="106.2"/><rect id="e5d95e83-bdd9-4322-95a9-5a9c4b449a8f-2" data-name="e5d95e83-bdd9-4322-95a9-5a9c4b449a8f" class="cls-3" x="1083.31" y="881.21" width="48.93" height="92.09"/><rect id="ac5bf8cc-574d-4509-9338-881c836fd832-2" data-name="ac5bf8cc-574d-4509-9338-881c836fd832" class="cls-1" x="1083.31" y="598.25" width="48.93" height="91.29"/><rect id="ac5bf8cc-574d-4509-9338-881c836fd832-3" data-name="ac5bf8cc-574d-4509-9338-881c836fd832" class="cls-8" x="1083.31" y="131.42" width="48.93" height="91.29"/><text class="cls-9" transform="translate(174.36 170.86) scale(0.95 1)">First got in touch with </text><text class="cls-10" transform="translate(400.26 170.86) scale(0.95 1)">HTML</text><text class="cls-9" transform="translate(455.91 170.86) scale(0.95 1)">,</text><text class="cls-10" transform="translate(174.36 195.06) scale(0.95 1)">CSS</text><text class="cls-9" transform="translate(216.01 195.06) scale(0.95 1)"><tspan xml:space="preserve"> and </tspan></text><text class="cls-10" transform="translate(262.43 195.06) scale(0.95 1)">JS</text><text class="cls-9" transform="translate(288.5 195.06) scale(0.95 1)"><tspan xml:space="preserve"> in </tspan></text><text class="cls-10" transform="translate(316.8 195.06) scale(0.95 1)">MIMO</text><text class="cls-9" transform="translate(372.6 195.06) scale(0.95 1)"><tspan xml:space="preserve"> app</tspan></text><text class="cls-9" transform="translate(633.82 181.59) scale(0.95 1)">Got my first personal </text><text class="cls-10" transform="translate(848.59 181.59) scale(0.95 1)">computer</text><text class="cls-9" transform="translate(437.71 379.98) scale(0.95 1)">Joined a free </text><text class="cls-10" transform="translate(572.53 379.98) scale(0.95 1)">Facebook</text><text class="cls-9" transform="translate(437.71 404.19) scale(0.95 1)">Group and practised with</text><text class="cls-9" transform="translate(437.71 428.39) scale(0.95 1)">My father’s computer</text><text class="cls-10" transform="translate(509.76 256.17) scale(0.95 1)">2</text><text class="cls-9" transform="translate(522.95 256.17) scale(0.95 1)">0</text><text class="cls-10" transform="translate(536.79 256.17) scale(0.95 1)">2</text><text class="cls-9" transform="translate(549.98 256.17) scale(0.95 1)">0 </text><text class="cls-10" transform="translate(569.69 256.17) scale(0.95 1)">J</text><text class="cls-9" transform="translate(581.93 256.17) scale(0.95 1)">uly</text><text class="cls-10" transform="translate(257.86 324.47) scale(0.95 1)">2</text><text class="cls-9" transform="translate(271.05 324.47) scale(0.95 1)">0</text><text class="cls-10" transform="translate(284.88 324.47) scale(0.95 1)">2</text><text class="cls-9" transform="translate(298.08 324.47) scale(0.95 1)">0 </text><text class="cls-10" transform="translate(317.79 324.47) scale(0.95 1)">A</text><text class="cls-9" transform="translate(331.14 324.47) scale(0.95 1)">pril</text><text class="cls-10" transform="translate(722.15 328.71) scale(0.95 1)">2</text><text class="cls-9" transform="translate(735.34 328.71) scale(0.95 1)">0</text><text class="cls-10" transform="translate(749.17 328.71) scale(0.95 1)">2</text><text class="cls-9" transform="translate(762.37 328.71) scale(0.95 1)">0 </text><text class="cls-10" transform="translate(782.08 328.71) scale(0.95 1)">D</text><text class="cls-9" transform="translate(796.55 328.71) scale(0.95 1)">ecember</text><text class="cls-10" transform="translate(974.33 404.19) scale(0.95 1)">2</text><text class="cls-9" transform="translate(987.52 404.19) scale(0.95 1)">0</text><text class="cls-10" transform="translate(1001.36 404.19) scale(0.95 1)">2</text><text class="cls-9" transform="translate(1014.55 404.19) scale(0.95 1)">1</text><text class="cls-10" transform="translate(726.4 490.82) scale(0.95 1)">2</text><text class="cls-9" transform="translate(739.6 490.82) scale(0.95 1)">0</text><text class="cls-10" transform="translate(753.43 490.82) scale(0.95 1)">2</text><text class="cls-9" transform="translate(766.62 490.82) scale(0.95 1)">1 </text><text class="cls-10" transform="translate(779.02 490.82) scale(0.95 1)">J</text><text class="cls-9" transform="translate(791.26 490.82) scale(0.95 1)">anuary</text><text class="cls-10" transform="translate(491.19 499.3) scale(0.95 1)">2</text><text class="cls-9" transform="translate(504.38 499.3) scale(0.95 1)">0</text><text class="cls-10" transform="translate(518.22 499.3) scale(0.95 1)">2</text><text class="cls-9" transform="translate(531.41 499.3) scale(0.95 1)">1 </text><text class="cls-10" transform="translate(543.81 499.3) scale(0.95 1)">J</text><text class="cls-9" transform="translate(556.05 499.3) scale(0.95 1)">anuary</text><text class="cls-9" transform="translate(219.52 738.76) scale(0.95 1)">More and more</text><text class="cls-10" transform="translate(219.52 762.96) scale(0.95 1)">HTML</text><text class="cls-9" transform="translate(275.16 762.96) scale(0.95 1)">, </text><text class="cls-10" transform="translate(286.61 762.96) scale(0.95 1)">CSS</text><text class="cls-9" transform="translate(328.26 762.96) scale(0.95 1)"><tspan xml:space="preserve"> and </tspan></text><text class="cls-10" transform="translate(374.84 762.96) scale(0.95 1)">JS</text><text class="cls-10" transform="translate(489.66 795.13) scale(0.95 1)">2</text><text class="cls-9" transform="translate(502.86 795.13) scale(0.95 1)">0</text><text class="cls-10" transform="translate(516.69 795.13) scale(0.95 1)">2</text><text class="cls-9" transform="translate(529.88 795.13) scale(0.95 1)">1 </text><text class="cls-10" transform="translate(542.28 795.13) scale(0.95 1)">F</text><text class="cls-9" transform="translate(554.68 795.13) scale(0.95 1)">ebruary</text><text class="cls-9" transform="translate(601.33 913.54) scale(0.95 1)">Learned libraries like </text><text class="cls-10" transform="translate(601.33 937.74) scale(0.95 1)">Bootstrap</text><text class="cls-9" transform="translate(701.64 937.74) scale(0.95 1)"><tspan xml:space="preserve"> and </tspan></text><text class="cls-10" transform="translate(748.22 937.74) scale(0.95 1)">jQuery</text><text class="cls-11" transform="translate(971.28 927.2) scale(1.08 1)">2</text><text class="cls-12" transform="translate(984.48 927.2) scale(1.08 1)">0</text><text class="cls-11" transform="translate(998.4 927.2) scale(1.08 1)">2</text><text class="cls-12" transform="translate(1011.59 927.2) scale(1.08 1)">1 </text><text class="cls-11" transform="translate(971.28 948.55) scale(1.08 1)">M</text><text class="cls-12" transform="translate(989 948.55) scale(1.08 1)">ay</text><text class="cls-9" transform="translate(823.57 1159.08) scale(0.95 1)">More </text><text class="cls-10" transform="translate(879.84 1159.08) scale(0.95 1)">Journey</text><text class="cls-9" transform="translate(959.01 1159.08) scale(0.95 1)"><tspan xml:space="preserve"> Ahead</tspan></text><polygon class="cls-2" points="942.77 1134.85 982.74 1061.51 902.89 1061.51 942.77 1134.85"/><rect id="ad5a043d-52f1-4931-b771-e4991ef7f7f7-3" data-name="ad5a043d-52f1-4931-b771-e4991ef7f7f7" class="cls-2" x="257.95" y="1004.96" width="76.75" height="163.36"/><rect id="ac5bf8cc-574d-4509-9338-881c836fd832-4" data-name="ac5bf8cc-574d-4509-9338-881c836fd832" class="cls-1" x="104.52" y="1096.49" width="153.51" height="71.83"/><rect id="ac5bf8cc-574d-4509-9338-881c836fd832-5" data-name="ac5bf8cc-574d-4509-9338-881c836fd832" class="cls-8" x="5.71" y="970.7" width="97.46" height="197.5"/><rect id="e5d95e83-bdd9-4322-95a9-5a9c4b449a8f-3" data-name="e5d95e83-bdd9-4322-95a9-5a9c4b449a8f" class="cls-3" x="188.51" y="925.83" width="69.28" height="170.67"/></g></g></g></svg>