<svg id="e7334088-53de-4589-99a2-090044ddfc90" xmlns="http://www.w3.org/2000/svg" viewBox="0 0 3075.6 4204.98"><defs><style>.cls-1{fill:#2f2f2f;}.cls-2,.cls-8{fill:#3f3d56;}.cls-3{fill:#ccc;}.cls-12,.cls-15,.cls-4,.cls-54,.cls-58{fill:#f9a826;}.cls-10,.cls-29,.cls-5,.cls-6,.cls-7{fill:none;}.cls-5{stroke:#f9a826;stroke-miterlimit:10;stroke-width:3px;}.cls-29,.cls-6{stroke:#ccc;}.cls-10,.cls-29,.cls-6,.cls-7,.cls-8{stroke-miterlimit:10;}.cls-6{stroke-width:2px;}.cls-10,.cls-7,.cls-8{stroke:#3f3d56;}.cls-29,.cls-7,.cls-8{stroke-width:3px;}.cls-9{fill:#e6e6e6;}.cls-10{stroke-width:4px;}.cls-11,.cls-12,.cls-13,.cls-15,.cls-34,.cls-35,.cls-36,.cls-51,.cls-52,.cls-54,.cls-55,.cls-56,.cls-58{isolation:isolate;}.cls-11,.cls-12,.cls-13,.cls-15{font-size:12px;}.cls-11,.cls-13,.cls-34,.cls-52,.cls-55,.cls-56{fill:#fff;}.cls-11,.cls-12{font-family:ArialMT, Arial;}.cls-13,.cls-15,.cls-34,.cls-35,.cls-36,.cls-51,.cls-52,.cls-54,.cls-55,.cls-56,.cls-58{font-family:Ubuntu-Regular, Ubuntu;}.cls-14{letter-spacing:-0.01em;}.cls-16{letter-spacing:0.01em;}.cls-17{letter-spacing:-0.02em;}.cls-18{letter-spacing:0em;}.cls-19{letter-spacing:-0.01em;}.cls-20{letter-spacing:0em;}.cls-21{letter-spacing:-0.01em;}.cls-22{letter-spacing:-0.05em;}.cls-23{letter-spacing:0.01em;}.cls-24{letter-spacing:0.02em;}.cls-25{letter-spacing:0.01em;}.cls-26{letter-spacing:-0.01em;}.cls-27{letter-spacing:-0.01em;}.cls-28{letter-spacing:-0.03em;}.cls-30{fill:#ff6a3d;}.cls-31,.cls-35,.cls-36,.cls-51{fill:#f4db7d;}.cls-32{fill:#fffae9;}.cls-33{fill:#9daaf2;}.cls-34,.cls-35,.cls-36{font-size:20.17px;}.cls-36,.cls-41{letter-spacing:-0.01em;}.cls-37{letter-spacing:0em;}.cls-38{letter-spacing:-0.01em;}.cls-39{letter-spacing:0.01em;}.cls-40{letter-spacing:-0.02em;}.cls-42{letter-spacing:-0.01em;}.cls-43{letter-spacing:-0.05em;}.cls-44{letter-spacing:0.01em;}.cls-45{letter-spacing:0em;}.cls-46{letter-spacing:-0.01em;}.cls-47{letter-spacing:0.02em;}.cls-48{letter-spacing:-0.01em;}.cls-49{letter-spacing:-0.03em;}.cls-50{letter-spacing:0.02em;}.cls-51,.cls-52{font-size:17.74px;}.cls-53{letter-spacing:-0.01em;}.cls-54,.cls-55{font-size:35.54px;}.cls-56,.cls-58{font-size:44.47px;}.cls-57{letter-spacing:-0.01em;}.cls-59{letter-spacing:0.01em;}.cls-60{letter-spacing:-0.05em;}.cls-61{letter-spacing:0.01em;}.cls-62{letter-spacing:-0.01em;}.cls-63{letter-spacing:-0.01em;}.cls-64{letter-spacing:0em;}.cls-65{letter-spacing:-0.02em;}.cls-66{letter-spacing:0.02em;}.cls-67{letter-spacing:0.01em;}.cls-68{letter-spacing:-0.01em;}.cls-69{letter-spacing:-0.01em;}.cls-70{letter-spacing:-0.03em;}</style></defs><g id="Primary_Assets" data-name="Primary Assets"><rect class="cls-1" x="843.7" y="435.1" width="609.9" height="727.1"/><path class="cls-2" d="M-1447.2,823h-249.9a5,5,0,0,1-5-5V770.9h2V818a3,3,0,0,0,3,3h249.9a3,3,0,0,0,3-3V770.6h2V818A5,5,0,0,1-1447.2,823Z" transform="translate(1943.8 0.5)"/><rect class="cls-2" y="770.4" width="587.2" height="2"/><circle id="a0cd768d-b738-4d4b-9ab3-78ab535c7573" class="cls-3" cx="328" cy="772.4" r="17.2"/><circle id="b9eb3d2e-31e0-4fe2-be5c-79abb86bc227" class="cls-4" cx="568.6" cy="504.9" r="17.2"/><circle id="aa04baac-fce0-420a-b86a-4a97f3079928" class="cls-5" cx="-1017.29" cy="1168.38" r="93" transform="translate(819.67 -376.62) rotate(-45)"/><circle id="e92cf92c-058e-415c-ba96-766a57ee18d9" class="cls-4" cx="477.6" cy="663.9" r="17.2"/><rect id="ac5bf8cc-574d-4509-9338-881c836fd832" class="cls-2" x="1351.2" y="434.4" width="51.3" height="22"/><rect id="ad5a043d-52f1-4931-b771-e4991ef7f7f7" class="cls-4" x="1047.8" y="434.4" width="61.8" height="22"/><rect id="e5d95e83-bdd9-4322-95a9-5a9c4b449a8f" class="cls-3" x="1185.8" y="434.4" width="51.3" height="22"/><path class="cls-2" d="M-1505.5,780.7h-2V731.3a5,5,0,0,1,5-5h48.7v2h-48.7a3,3,0,0,0-3,3v49.4Z" transform="translate(1943.8 0.5)"/><line class="cls-6" x1="1268.7" y1="574.6" x2="1268.7" y2="537.2"/><rect class="cls-7" x="1024.7" y="616.4" width="196" height="55"/><line class="cls-6" x1="970.7" y1="580.1" x2="970.7" y2="539.7"/><line class="cls-6" x1="1266.4" y1="804.6" x2="1266.4" y2="764.2"/><line class="cls-6" x1="1121.5" y1="764.9" x2="1068.5" y2="764.9"/><rect class="cls-8" x="873.8" y="738.4" width="196" height="55"/><rect class="cls-8" x="872.7" y="484.3" width="196" height="55"/><rect class="cls-8" x="1170.7" y="481.7" width="196" height="55"/><line class="cls-6" x1="1121" y1="616.7" x2="1121" y2="576.3"/><rect class="cls-7" x="39.1" y="1040" width="196" height="55"/><rect class="cls-7" x="96.9" y="970.4" width="196" height="55"/><rect class="cls-3" x="1121" y="763.9" width="244.3" height="2"/><rect class="cls-3" x="968.5" y="574.6" width="395.9" height="2"/><rect class="cls-3" x="1120" y="765.9" width="2" height="128.5"/><rect class="cls-3" x="1363.4" y="574.4" width="2" height="190.7"/><rect class="cls-3" x="1121" y="892.4" width="244.3" height="2"/><line class="cls-6" x1="1121.5" y1="893.4" x2="1068.5" y2="893.4"/><circle id="ac293633-0933-4e21-a8aa-bc27ca4fbccc" class="cls-9" cx="152.9" cy="649.9" r="12.2"/><circle id="b3140cf1-cdb8-48ff-81af-ce41ed4f5739" class="cls-9" cx="261" cy="475" r="13.8"/><circle id="abdb3fbf-f68e-433e-a33f-153626b38c76" class="cls-4" cx="1268.7" cy="574.6" r="14.2"/><circle id="abdb3fbf-f68e-433e-a33f-153626b38c76-2" data-name="abdb3fbf-f68e-433e-a33f-153626b38c76" class="cls-4" cx="1121.5" cy="764.9" r="14.2"/><circle id="abdb3fbf-f68e-433e-a33f-153626b38c76-3" data-name="abdb3fbf-f68e-433e-a33f-153626b38c76" class="cls-9" cx="1120.4" cy="576.3" r="14.2"/><circle id="abdb3fbf-f68e-433e-a33f-153626b38c76-4" data-name="abdb3fbf-f68e-433e-a33f-153626b38c76" class="cls-9" cx="1266.4" cy="763.9" r="14.2"/><circle id="abdb3fbf-f68e-433e-a33f-153626b38c76-5" data-name="abdb3fbf-f68e-433e-a33f-153626b38c76" class="cls-2" cx="970.5" cy="573.6" r="14.2"/><circle id="abdb3fbf-f68e-433e-a33f-153626b38c76-6" data-name="abdb3fbf-f68e-433e-a33f-153626b38c76" class="cls-2" cx="1121" cy="892.9" r="14.2"/><circle id="abdb3fbf-f68e-433e-a33f-153626b38c76-7" data-name="abdb3fbf-f68e-433e-a33f-153626b38c76" class="cls-10" cx="848.3" cy="1044.7" r="93"/><circle id="abdb3fbf-f68e-433e-a33f-153626b38c76-8" data-name="abdb3fbf-f68e-433e-a33f-153626b38c76" class="cls-9" cx="269.3" cy="507.4" r="14.2"/><circle id="abdb3fbf-f68e-433e-a33f-153626b38c76-9" data-name="abdb3fbf-f68e-433e-a33f-153626b38c76" class="cls-4" cx="328" cy="513.5" r="11.7"/><circle id="abdb3fbf-f68e-433e-a33f-153626b38c76-10" data-name="abdb3fbf-f68e-433e-a33f-153626b38c76" class="cls-4" cx="465.9" cy="721.4" r="11.7"/><rect class="cls-7" x="1168.4" y="804.8" width="196" height="55"/><text class="cls-11" transform="translate(931.58 770.56)">Joined </text><text class="cls-12" transform="translate(967.38 770.56)">SWD</text><rect class="cls-7" x="873.8" y="865.9" width="196" height="55"/><circle id="abdb3fbf-f68e-433e-a33f-153626b38c76-11" data-name="abdb3fbf-f68e-433e-a33f-153626b38c76" class="cls-2" cx="1364.4" cy="664.5" r="14.2"/><text class="cls-13" transform="translate(891.47 506.92)">First got in <tspan class="cls-14" x="61.37" y="0">t</tspan><tspan x="66.02" y="0">ouch with </tspan></text><text class="cls-15" transform="translate(1013.67 506.92)">HTML</text><text class="cls-13" transform="translate(1045.57 506.92)">,</text><text class="cls-15" transform="translate(891.47 521.32)"><tspan class="cls-16">C</tspan><tspan x="7.56" y="0">SS</tspan></text><text class="cls-13" transform="translate(911.67 521.32)"><tspan xml:space="preserve"> and </tspan></text><text class="cls-15" transform="translate(937.47 521.32)">JS</text><text class="cls-13" transform="translate(949.87 521.32)"><tspan xml:space="preserve"> in </tspan></text><text class="cls-15" transform="translate(965.27 521.32)">MIMO</text><text class="cls-13" transform="translate(998.77 521.32)"><tspan xml:space="preserve"> app</tspan></text><text class="cls-13" transform="translate(1195.92 513.12)">Got <tspan class="cls-17" x="22.74" y="0">m</tspan><tspan class="cls-18" x="32.86" y="0">y </tspan><tspan class="cls-19" x="41.59" y="0">o</tspan><tspan x="48.52" y="0">wn first </tspan></text><text class="cls-15" transform="translate(1289.12 513.12)"><tspan class="cls-19">c</tspan><tspan class="cls-20" x="5.42" y="0">ompu</tspan><tspan class="cls-21" x="36.79" y="0">t</tspan><tspan x="41.5" y="0">er</tspan></text><text class="cls-15" transform="translate(943.49 600.08)">2</text><text class="cls-13" transform="translate(950.29 600.08)">0</text><text class="cls-15" transform="translate(956.99 600.08)">2</text><text class="cls-13" transform="translate(963.79 600.08)">0 </text><text class="cls-15" transform="translate(973.29 600.08)">A</text><text class="cls-13" transform="translate(981.29 600.08)">pril</text><text class="cls-15" transform="translate(1097.52 559.35)">2</text><text class="cls-13" transform="translate(1104.32 559.35)">0</text><text class="cls-15" transform="translate(1111.02 559.35)">2</text><text class="cls-13" transform="translate(1117.82 559.35)">0 </text><text class="cls-15" transform="translate(1127.32 559.35)">J</text><text class="cls-13" transform="translate(1133.32 559.35)">uly</text><text class="cls-15" transform="translate(1226.41 602.3)">2</text><text class="cls-13" transform="translate(1233.21 602.3)">0</text><text class="cls-15" transform="translate(1239.91 602.3)">2</text><text class="cls-13" transform="translate(1246.71 602.3)">0 </text><text class="cls-15" transform="translate(1256.21 602.3)">D</text><text class="cls-13" transform="translate(1264.81 602.3)">ecember</text><text class="cls-13" transform="translate(1034.63 633.41)">Joined a </text><text class="cls-15" transform="translate(1083.23 633.41)">free <tspan class="cls-22" x="25.45" y="0">F</tspan><tspan x="31.28" y="0">acebook </tspan></text><text class="cls-13" transform="translate(1163.93 633.41)">learning </text><text class="cls-13" transform="translate(1034.63 647.81)">Group and practised with </text><text class="cls-13" transform="translate(1034.63 662.21)">My fathe<tspan class="cls-23" x="48.47" y="0">r</tspan><tspan class="cls-18" x="53.27" y="0">’s </tspan></text><text class="cls-15" transform="translate(1098.63 662.21)"><tspan class="cls-19">c</tspan><tspan class="cls-20" x="5.42" y="0">ompu</tspan><tspan class="cls-21" x="36.79" y="0">t</tspan><tspan x="41.5" y="0">er</tspan></text><text class="cls-15" transform="translate(1382.36 669.7)">2</text><text class="cls-13" transform="translate(1389.16 669.7)">0</text><text class="cls-15" transform="translate(1395.86 669.7)">2</text><text class="cls-13" transform="translate(1402.66 669.7)">1</text><text class="cls-15" transform="translate(1230.77 743.85)">2</text><text class="cls-13" transform="translate(1237.57 743.85)">0</text><text class="cls-15" transform="translate(1244.27 743.85)">2</text><text class="cls-13" transform="translate(1251.07 743.85)">1 </text><text class="cls-15" transform="translate(1260.57 743.85)">J</text><text class="cls-13" transform="translate(1266.57 743.85)">anua<tspan class="cls-24" x="26.3" y="0">r</tspan><tspan x="31.19" y="0">y</tspan></text><text class="cls-15" transform="translate(1085.32 746.11)">2</text><text class="cls-13" transform="translate(1092.12 746.11)">0</text><text class="cls-15" transform="translate(1098.82 746.11)">2</text><text class="cls-13" transform="translate(1105.62 746.11)">1 </text><text class="cls-15" transform="translate(1115.12 746.11)">J</text><text class="cls-13" transform="translate(1121.12 746.11)">anua<tspan class="cls-24" x="26.3" y="0">r</tspan><tspan x="31.19" y="0">y</tspan></text><text class="cls-15" transform="translate(1082.3 919.9)">2</text><text class="cls-13" transform="translate(1089.1 919.9)">0</text><text class="cls-15" transform="translate(1095.8 919.9)">2</text><text class="cls-13" transform="translate(1102.6 919.9)">1 </text><text class="cls-15" transform="translate(1112.1 919.9)">F</text><text class="cls-13" transform="translate(1118.6 919.9)">ebrua<tspan class="cls-24" x="31.56" y="0">r</tspan><tspan x="36.44" y="0">y</tspan></text><text class="cls-13" transform="translate(1233.02 836.17)">Joined </text><text class="cls-15" transform="translate(1272.62 836.17)"><tspan class="cls-19">B</tspan><tspan x="7.56" y="0">WD</tspan></text><text class="cls-13" transform="translate(880.55 897.3)">More and more </text><text class="cls-15" transform="translate(966.75 897.3)">HTML</text><text class="cls-13" transform="translate(998.65 897.3)">,</text><text class="cls-15" transform="translate(1001.55 897.3)"> <tspan class="cls-25" x="2.77" y="0">C</tspan><tspan class="cls-18" x="10.33" y="0">SS</tspan></text><text class="cls-13" transform="translate(1024.55 897.3)"><tspan xml:space="preserve"> and</tspan></text><text class="cls-15" transform="translate(1047.55 897.3)"><tspan xml:space="preserve"> JS</tspan></text><rect class="cls-3" x="1364.4" y="892.4" width="2" height="209"/><line class="cls-6" x1="1364.4" y1="971.5" x2="1311.4" y2="971.5"/><circle id="abdb3fbf-f68e-433e-a33f-153626b38c76-12" data-name="abdb3fbf-f68e-433e-a33f-153626b38c76" class="cls-9" cx="1364.4" cy="972.5" r="14.2"/><rect class="cls-8" x="1115.4" y="945" width="196" height="55"/><text class="cls-15" transform="translate(1383.03 974.71)">2</text><text class="cls-13" transform="translate(1389.83 974.71)">0</text><text class="cls-15" transform="translate(1396.53 974.71)">2</text><text class="cls-13" transform="translate(1403.33 974.71)">1 </text><text class="cls-15" transform="translate(1412.83 974.71)">M</text><text class="cls-13" transform="translate(1423.33 974.71)"><tspan class="cls-26">a</tspan><tspan x="6.08" y="0">y</tspan></text><text class="cls-13" transform="translate(1155.61 969.2)"><tspan class="cls-27">L</tspan><tspan x="6.08" y="0">earned libraries li</tspan><tspan class="cls-28" x="100.21" y="0">k</tspan><tspan x="106.16" y="0">e </tspan></text><text class="cls-15" transform="translate(1155.61 983.6)">Bootstrap </text><text class="cls-13" transform="translate(1213.21 983.6)">and</text><text class="cls-15" transform="translate(1233.41 983.6)"><tspan xml:space="preserve"> jQue</tspan><tspan class="cls-24" x="28.74" y="0">r</tspan><tspan class="cls-18" x="33.62" y="0">y</tspan></text><circle id="abdb3fbf-f68e-433e-a33f-153626b38c76-13" data-name="abdb3fbf-f68e-433e-a33f-153626b38c76" class="cls-4" cx="1365.4" cy="1099.4" r="14.2"/><text class="cls-13" transform="translate(1313.75 1127.55)">More </text><text class="cls-15" transform="translate(1345.35 1127.55)">Journey </text><text class="cls-13" transform="translate(1392.35 1127.55)">Ahead</text><circle id="a0cd768d-b738-4d4b-9ab3-78ab535c7573-2" data-name="a0cd768d-b738-4d4b-9ab3-78ab535c7573" class="cls-29" cx="984.8" cy="1047.3" r="93"/><circle id="e92cf92c-058e-415c-ba96-766a57ee18d9-2" data-name="e92cf92c-058e-415c-ba96-766a57ee18d9" class="cls-4" cx="1447.6" cy="521.4" r="17.2"/><circle id="a0cd768d-b738-4d4b-9ab3-78ab535c7573-3" data-name="a0cd768d-b738-4d4b-9ab3-78ab535c7573" class="cls-3" cx="1447.6" cy="691.8" r="17.2"/><circle id="abdb3fbf-f68e-433e-a33f-153626b38c76-14" data-name="abdb3fbf-f68e-433e-a33f-153626b38c76" class="cls-2" cx="-496.18" cy="826.39" r="17.6" transform="translate(945.87 3.87) rotate(-62.35)"/><circle id="abdb3fbf-f68e-433e-a33f-153626b38c76-15" data-name="abdb3fbf-f68e-433e-a33f-153626b38c76" class="cls-2" cx="441.3" cy="967" r="80.4"/></g><g id="large_screen" data-name="large screen"><rect id="ac5bf8cc-574d-4509-9338-881c836fd832-2" data-name="ac5bf8cc-574d-4509-9338-881c836fd832" class="cls-30" x="2758.1" width="85.6" height="38.6"/><rect id="ad5a043d-52f1-4931-b771-e4991ef7f7f7-2" data-name="ad5a043d-52f1-4931-b771-e4991ef7f7f7" class="cls-31" x="2203.4" width="132.9" height="38.6"/><rect id="e5d95e83-bdd9-4322-95a9-5a9c4b449a8f-2" data-name="e5d95e83-bdd9-4322-95a9-5a9c4b449a8f" class="cls-32" x="2522.9" width="85.6" height="38.6"/><line class="cls-6" x1="2731.9" y1="282.2" x2="2731.9" y2="219.5"/><rect class="cls-7" x="2344.3" y="352.7" width="311.3" height="92.1"/><line class="cls-6" x1="2258.8" y1="291.2" x2="2258.8" y2="223.5"/><line class="cls-6" x1="2728.8" y1="599.3" x2="2728.8" y2="531.6"/><line class="cls-6" x1="2498.8" y1="533.3" x2="2414.5" y2="533.3"/><rect class="cls-8" x="2105" y="488.9" width="311.3" height="92.1"/><rect class="cls-2" x="2101.6" y="130.6" width="311.3" height="92.1"/><rect class="cls-8" x="2574.3" y="131" width="311.3" height="92.1"/><line class="cls-6" x1="2497.2" y1="352.3" x2="2497.2" y2="284.7"/><rect class="cls-32" x="2498" y="531.6" width="388.1" height="3.3"/><rect class="cls-32" x="2255" y="282.2" width="629.5" height="3.3"/><rect class="cls-32" x="2496.5" y="534.9" width="3" height="216"/><rect class="cls-32" x="2883.8" y="281.4" width="3" height="252.7"/><rect class="cls-32" x="2498" y="746.9" width="388.1" height="3.3"/><line class="cls-6" x1="2498.8" y1="748.5" x2="2414.5" y2="748.5"/><ellipse id="abdb3fbf-f68e-433e-a33f-153626b38c76-16" data-name="abdb3fbf-f68e-433e-a33f-153626b38c76" class="cls-31" cx="2732.2" cy="281.9" rx="22.6" ry="23.8"/><ellipse id="abdb3fbf-f68e-433e-a33f-153626b38c76-17" data-name="abdb3fbf-f68e-433e-a33f-153626b38c76" class="cls-31" cx="2498.6" cy="532.9" rx="22.6" ry="23.8"/><ellipse id="abdb3fbf-f68e-433e-a33f-153626b38c76-18" data-name="abdb3fbf-f68e-433e-a33f-153626b38c76" class="cls-33" cx="2496.5" cy="284.8" rx="22.6" ry="23.8"/><ellipse id="abdb3fbf-f68e-433e-a33f-153626b38c76-19" data-name="abdb3fbf-f68e-433e-a33f-153626b38c76" class="cls-33" cx="2728.9" cy="531.2" rx="22.6" ry="23.8"/><ellipse id="abdb3fbf-f68e-433e-a33f-153626b38c76-20" data-name="abdb3fbf-f68e-433e-a33f-153626b38c76" class="cls-30" cx="2258.1" cy="280" rx="22.6" ry="23.8"/><ellipse id="abdb3fbf-f68e-433e-a33f-153626b38c76-21" data-name="abdb3fbf-f68e-433e-a33f-153626b38c76" class="cls-30" cx="2497.8" cy="748.1" rx="22.6" ry="23.8"/><rect class="cls-7" x="2573.6" y="599.7" width="311.3" height="92.1"/><text class="cls-34" transform="translate(2182.16 542.43) scale(0.95 1)">Joined </text><text class="cls-35" transform="translate(2253.42 542.43) scale(0.95 1)">SWD</text><rect class="cls-7" x="2105" y="702.5" width="311.3" height="92.1"/><ellipse id="abdb3fbf-f68e-433e-a33f-153626b38c76-22" data-name="abdb3fbf-f68e-433e-a33f-153626b38c76" class="cls-30" cx="2883.4" cy="398.4" rx="22.6" ry="23.8"/><text class="cls-34" transform="translate(2671.29 652.72) scale(0.95 1)">Joined </text><text class="cls-36" transform="translate(2738.68 652.72) scale(0.95 1)">B<tspan class="cls-37" x="12.71" y="0">WD</tspan></text><rect class="cls-32" x="2885.3" y="746.9" width="3" height="351.3"/><line class="cls-6" x1="2889.8" y1="922.1" x2="2805.6" y2="922.1"/><ellipse id="abdb3fbf-f68e-433e-a33f-153626b38c76-23" data-name="abdb3fbf-f68e-433e-a33f-153626b38c76" class="cls-33" cx="2885.1" cy="921.1" rx="22.6" ry="23.8"/><rect class="cls-8" x="2493.8" y="875.3" width="311.3" height="92.1"/><rect id="ad5a043d-52f1-4931-b771-e4991ef7f7f7-3" data-name="ad5a043d-52f1-4931-b771-e4991ef7f7f7" class="cls-30" x="1943.4" y="382.9" width="39.6" height="106.2"/><rect id="e5d95e83-bdd9-4322-95a9-5a9c4b449a8f-3" data-name="e5d95e83-bdd9-4322-95a9-5a9c4b449a8f" class="cls-32" x="3026.7" y="881.2" width="48.9" height="92.1"/><rect id="ac5bf8cc-574d-4509-9338-881c836fd832-3" data-name="ac5bf8cc-574d-4509-9338-881c836fd832" class="cls-30" x="3026.7" y="598.3" width="48.9" height="91.3"/><rect id="ac5bf8cc-574d-4509-9338-881c836fd832-4" data-name="ac5bf8cc-574d-4509-9338-881c836fd832" class="cls-33" x="3026.7" y="131.4" width="48.9" height="91.3"/><text class="cls-34" transform="translate(2117.72 170.86) scale(0.95 1)">First got in <tspan class="cls-38" x="103.16" y="0">t</tspan><tspan x="110.98" y="0">ouch with </tspan></text><text class="cls-35" transform="translate(2321.19 170.86) scale(0.95 1)">HTML</text><text class="cls-34" transform="translate(2375.77 171.1) scale(0.95 1)">,</text><text class="cls-35" transform="translate(2117.72 195.06) scale(0.95 1)"><tspan class="cls-39">C</tspan><tspan x="12.71" y="0">SS</tspan></text><text class="cls-34" transform="translate(2159.37 195.06) scale(0.95 1)"><tspan xml:space="preserve"> and </tspan></text><text class="cls-35" transform="translate(2205.79 195.06) scale(0.95 1)">JS</text><text class="cls-34" transform="translate(2231.87 195.06) scale(0.95 1)"><tspan xml:space="preserve"> in </tspan></text><text class="cls-35" transform="translate(2260.16 195.06) scale(0.95 1)">MIMO</text><text class="cls-34" transform="translate(2315.97 195.06) scale(0.95 1)"><tspan xml:space="preserve"> app</tspan></text><text class="cls-34" transform="translate(2597.25 181.59) scale(0.95 1)">Got <tspan class="cls-40" x="38.23" y="0">m</tspan><tspan x="55.23" y="0">y first personal </tspan></text><text class="cls-35" transform="translate(2786.99 181.59) scale(0.95 1)"><tspan class="cls-41">c</tspan><tspan class="cls-37" x="9.12" y="0">ompu</tspan><tspan class="cls-42" x="61.85" y="0">t</tspan><tspan x="69.75" y="0">er</tspan></text><text class="cls-34" transform="translate(2381.08 379.98) scale(0.95 1)">Joined a free </text><text class="cls-35" transform="translate(2515.89 379.98) scale(0.95 1)"><tspan class="cls-43">F</tspan><tspan x="9.8" y="0">acebook</tspan></text><text class="cls-34" transform="translate(2381.08 404.19) scale(0.95 1)">Group and practised with</text><text class="cls-34" transform="translate(2381.08 428.39) scale(0.95 1)">My fathe<tspan class="cls-44" x="81.47" y="0">r</tspan><tspan class="cls-45" x="89.54" y="0">’s </tspan><tspan class="cls-46" x="107.94" y="0">c</tspan><tspan x="117.05" y="0">ompu</tspan><tspan class="cls-42" x="169.78" y="0">t</tspan><tspan x="177.69" y="0">er</tspan></text><text class="cls-35" transform="translate(2453.12 256.17) scale(0.95 1)">2</text><text class="cls-34" transform="translate(2466.32 256.17) scale(0.95 1)">0</text><text class="cls-35" transform="translate(2480.15 256.17) scale(0.95 1)">2</text><text class="cls-34" transform="translate(2493.34 256.17) scale(0.95 1)">0 </text><text class="cls-35" transform="translate(2513.06 256.17) scale(0.95 1)">J</text><text class="cls-34" transform="translate(2525.3 256.17) scale(0.95 1)">uly</text><text class="cls-35" transform="translate(2201.22 324.47) scale(0.95 1)">2</text><text class="cls-34" transform="translate(2214.41 324.47) scale(0.95 1)">0</text><text class="cls-35" transform="translate(2228.24 324.47) scale(0.95 1)">2</text><text class="cls-34" transform="translate(2241.44 324.47) scale(0.95 1)">0 </text><text class="cls-35" transform="translate(2261.15 324.47) scale(0.95 1)">A</text><text class="cls-34" transform="translate(2274.5 324.47) scale(0.95 1)">pril</text><text class="cls-35" transform="translate(2665.51 328.71) scale(0.95 1)">2</text><text class="cls-34" transform="translate(2678.71 328.71) scale(0.95 1)">0</text><text class="cls-35" transform="translate(2692.54 328.71) scale(0.95 1)">2</text><text class="cls-34" transform="translate(2706.14 328.2) scale(0.95 1)">0 </text><text class="cls-35" transform="translate(2725.44 328.71) scale(0.95 1)">D</text><text class="cls-34" transform="translate(2739.91 328.71) scale(0.95 1)">ecember</text><text class="cls-35" transform="translate(2917.69 404.19) scale(0.95 1)">2</text><text class="cls-34" transform="translate(2930.88 404.19) scale(0.95 1)">0</text><text class="cls-35" transform="translate(2944.72 404.19) scale(0.95 1)">2</text><text class="cls-34" transform="translate(2957.91 404.19) scale(0.95 1)">1</text><text class="cls-35" transform="translate(2669.76 490.82) scale(0.95 1)">2</text><text class="cls-34" transform="translate(2682.96 490.82) scale(0.95 1)">0</text><text class="cls-35" transform="translate(2696.79 490.82) scale(0.95 1)">2</text><text class="cls-34" transform="translate(2709.98 490.82) scale(0.95 1)">1 </text><text class="cls-35" transform="translate(2722.38 490.82) scale(0.95 1)">J</text><text class="cls-34" transform="translate(2734.62 490.82) scale(0.95 1)">anua<tspan class="cls-47" x="44.22" y="0">r</tspan><tspan x="52.43" y="0">y</tspan></text><text class="cls-35" transform="translate(2434.55 499.3) scale(0.95 1)">2</text><text class="cls-34" transform="translate(2447.75 499.3) scale(0.95 1)">0</text><text class="cls-35" transform="translate(2461.58 499.3) scale(0.95 1)">2</text><text class="cls-34" transform="translate(2474.77 499.3) scale(0.95 1)">1 </text><text class="cls-35" transform="translate(2487.17 499.3) scale(0.95 1)">J</text><text class="cls-34" transform="translate(2499.41 499.3) scale(0.95 1)">anua<tspan class="cls-47" x="44.22" y="0">r</tspan><tspan x="52.43" y="0">y</tspan></text><text class="cls-34" transform="translate(2162.88 738.76) scale(0.95 1)">More and more</text><text class="cls-35" transform="translate(2162.88 762.96) scale(0.95 1)">HTML</text><text class="cls-34" transform="translate(2218.52 762.96) scale(0.95 1)">, </text><text class="cls-35" transform="translate(2229.97 762.96) scale(0.95 1)"><tspan class="cls-39">C</tspan><tspan x="12.71" y="0">SS</tspan></text><text class="cls-34" transform="translate(2271.62 762.96) scale(0.95 1)"><tspan xml:space="preserve"> and </tspan></text><text class="cls-35" transform="translate(2318.2 762.96) scale(0.95 1)">JS</text><text class="cls-35" transform="translate(2433.02 795.13) scale(0.95 1)">2</text><text class="cls-34" transform="translate(2446.22 795.13) scale(0.95 1)">0</text><text class="cls-35" transform="translate(2460.05 795.13) scale(0.95 1)">2</text><text class="cls-34" transform="translate(2473.25 795.13) scale(0.95 1)">1 </text><text class="cls-35" transform="translate(2485.65 795.13) scale(0.95 1)">F</text><text class="cls-34" transform="translate(2498.05 795.13) scale(0.95 1)">ebrua<tspan class="cls-47" x="53.05" y="0">r</tspan><tspan x="61.26" y="0">y</tspan></text><text class="cls-34" transform="translate(2544.69 913.54) scale(0.95 1)"><tspan class="cls-48">L</tspan><tspan x="10.23" y="0">earned libraries li</tspan><tspan class="cls-49" x="168.45" y="0">k</tspan><tspan x="178.46" y="0">e </tspan></text><text class="cls-35" transform="translate(2544.69 937.74) scale(0.95 1)">Bootstrap</text><text class="cls-34" transform="translate(2639.1 937.74) scale(0.95 1)"><tspan xml:space="preserve"> and </tspan></text><text class="cls-35" transform="translate(2691.58 937.74) scale(0.95 1)">jQue<tspan class="cls-50" x="43.65" y="0">r</tspan><tspan class="cls-45" x="51.86" y="0">y</tspan></text><text class="cls-51" transform="translate(2914.64 927.2) scale(1.08 1)">2</text><text class="cls-52" transform="translate(2927.84 927.2) scale(1.08 1)">0</text><text class="cls-51" transform="translate(2941.76 927.2) scale(1.08 1)">2</text><text class="cls-52" transform="translate(2954.95 927.2) scale(1.08 1)">1 </text><text class="cls-51" transform="translate(2914.64 948.55) scale(1.08 1)">M</text><text class="cls-52" transform="translate(2932.36 948.55) scale(1.08 1)"><tspan class="cls-53">a</tspan><tspan x="9" y="0">y</tspan></text><text class="cls-34" transform="translate(2790.47 1159.08) scale(0.95 1)">More </text><text class="cls-35" transform="translate(2847.66 1159.08) scale(0.95 1)">Journey</text><text class="cls-34" transform="translate(2920.9 1159.32) scale(0.95 1)"><tspan xml:space="preserve"> Ahead</tspan></text><polygon class="cls-31" points="2886.1 1134.8 2926.1 1061.5 2846.3 1061.5 2886.1 1134.8"/></g><g id="smaller_screen" data-name="smaller screen"><line class="cls-6" x1="1881.7" y1="2536.3" x2="1732" y2="2536.3"/><rect class="cls-32" x="1879.5" y="1994.9" width="7.4" height="2045.3"/><line class="cls-6" x1="1886.9" y1="1994.9" x2="1737.2" y2="1994.9"/><line class="cls-6" x1="1879.5" y1="3010.7" x2="1742.8" y2="3010.7"/><circle id="abdb3fbf-f68e-433e-a33f-153626b38c76-24" data-name="abdb3fbf-f68e-433e-a33f-153626b38c76" class="cls-33" cx="1881.7" cy="2536.3" r="52.6"/><circle id="abdb3fbf-f68e-433e-a33f-153626b38c76-25" data-name="abdb3fbf-f68e-433e-a33f-153626b38c76" class="cls-4" cx="-60.81" cy="1994.44" r="52.6" transform="translate(-63.25 1554.86) rotate(-79)"/><circle id="abdb3fbf-f68e-433e-a33f-153626b38c76-26" data-name="abdb3fbf-f68e-433e-a33f-153626b38c76" class="cls-4" cx="-60.45" cy="2773.09" r="52.6" transform="translate(-844.24 2269.67) rotate(-80.78)"/><line class="cls-6" x1="1886.9" y1="2253.6" x2="1737.2" y2="2253.6"/><circle id="abdb3fbf-f68e-433e-a33f-153626b38c76-27" data-name="abdb3fbf-f68e-433e-a33f-153626b38c76" class="cls-31" cx="-56.91" cy="2253.13" r="52.6" transform="translate(-331.89 1857.6) rotate(-81.33)"/><circle id="abdb3fbf-f68e-433e-a33f-153626b38c76-28" data-name="abdb3fbf-f68e-433e-a33f-153626b38c76" class="cls-31" cx="-64.31" cy="3010.17" r="52.6" transform="translate(-203.55 836.69) rotate(-45)"/><text class="cls-54" transform="translate(1946.92 1987.71) scale(1.25 1)">2</text><text class="cls-55" transform="translate(1977.52 1987.71) scale(1.25 1)">0</text><text class="cls-54" transform="translate(2009.98 1987.71) scale(1.25 1)">2</text><text class="cls-55" transform="translate(2040.58 1987.71) scale(1.25 1)">0 </text><text class="cls-54" transform="translate(1946.92 2030.33) scale(1.25 1)">A</text><text class="cls-55" transform="translate(1977.98 2030.33) scale(1.25 1)">pril</text><rect class="cls-2" x="1010.9" y="1893" width="726.4" height="203.8"/><text class="cls-56" transform="translate(1039.12 1978.37)">First got in <tspan class="cls-57" x="227.42" y="0">t</tspan><tspan x="244.67" y="0">ouch with </tspan></text><text class="cls-58" transform="translate(1565.72 1978.37)">HTML</text><text class="cls-56" transform="translate(1695.43 1978.37)">,</text><text class="cls-58" transform="translate(1039.12 2031.74)"><tspan class="cls-59">C</tspan><tspan x="28.02" y="0">SS</tspan></text><text class="cls-56" transform="translate(1136.21 2031.74)"><tspan xml:space="preserve"> and </tspan></text><text class="cls-58" transform="translate(1244.42 2031.74)">JS</text><text class="cls-56" transform="translate(1305.2 2031.74)"><tspan xml:space="preserve"> in </tspan></text><text class="cls-58" transform="translate(1371.16 2031.74)">MIMO</text><text class="cls-56" transform="translate(1501.24 2031.74)"><tspan xml:space="preserve"> app</tspan></text><text class="cls-58" transform="translate(1946.48 2241.3)">2</text><text class="cls-56" transform="translate(1977.24 2241.3)">0</text><text class="cls-58" transform="translate(2009.48 2241.3)">2</text><text class="cls-56" transform="translate(2040.23 2241.3)">0</text><text class="cls-58" transform="translate(1946.48 2294.67)">J</text><text class="cls-56" transform="translate(1975.01 2294.67)">uly</text><rect class="cls-7" x="1016.4" y="2147.6" width="715.6" height="203.8"/><text class="cls-56" transform="translate(1091.67 2208.99)">Joined a free </text><text class="cls-58" transform="translate(1405.93 2208.99)"><tspan class="cls-60">F</tspan><tspan x="21.61" y="0">acebook</tspan></text><text class="cls-56" transform="translate(1091.67 2262.35)">Group and practised with</text><text class="cls-56" transform="translate(1091.67 2315.72)">My fathe<tspan class="cls-61" x="179.61" y="0">r</tspan><tspan x="197.4" y="0">’s </tspan><tspan class="cls-62" x="237.96" y="0">c</tspan><tspan x="258.06" y="0">ompu</tspan><tspan class="cls-63" x="374.3" y="0">t</tspan><tspan class="cls-64" x="391.73" y="0">er</tspan></text><line class="cls-6" x1="1879.5" y1="3753" x2="1729.8" y2="3753"/><rect class="cls-2" x="1010.9" y="2408.8" width="726.4" height="203.8"/><text class="cls-56" transform="translate(1133.92 2498.81)">Got <tspan class="cls-65" x="84.27" y="0">m</tspan><tspan x="121.76" y="0">y first personal</tspan></text><text class="cls-58" transform="translate(1133.92 2552.18)"><tspan class="cls-62">c</tspan><tspan x="20.1" y="0">ompu</tspan><tspan class="cls-63" x="136.35" y="0">t</tspan><tspan class="cls-64" x="153.78" y="0">er</tspan></text><text class="cls-58" transform="translate(1943.36 2521.94)">2</text><text class="cls-56" transform="translate(1974.12 2521.94)">0</text><text class="cls-58" transform="translate(2006.36 2521.94)">2</text><text class="cls-56" transform="translate(2037.12 2521.94)">0 </text><text class="cls-58" transform="translate(1943.36 2575.3)">D</text><text class="cls-56" transform="translate(1977.09 2575.3)">ecember</text><text class="cls-58" transform="translate(1947.37 2782.54)">2</text><text class="cls-56" transform="translate(1978.12 2782.54)">0</text><text class="cls-58" transform="translate(2010.36 2782.54)">2</text><text class="cls-56" transform="translate(2041.12 2782.54)">1</text><rect class="cls-7" x="1016.4" y="2908.8" width="726.4" height="203.8"/><text class="cls-56" transform="translate(1235.48 3028.45)">Joined </text><text class="cls-58" transform="translate(1946.48 3005.32)">2</text><text class="cls-56" transform="translate(1977.24 3005.32)">0</text><text class="cls-58" transform="translate(2009.48 3005.32)">2</text><text class="cls-56" transform="translate(2040.24 3005.32)">1 </text><text class="cls-58" transform="translate(1946.48 3058.69)">J</text><text class="cls-56" transform="translate(1975.01 3058.69)">anua<tspan class="cls-66" x="97.48" y="0">r</tspan><tspan x="115.58" y="0">y</tspan></text><text class="cls-58" transform="translate(1401.17 3028.45)"><tspan class="cls-62">B</tspan><tspan x="28.02" y="0">WD</tspan></text><line class="cls-6" x1="1890.6" y1="3260.8" x2="1739.8" y2="3260.8"/><rect class="cls-2" x="1013.5" y="3158.9" width="726.4" height="203.8"/><text class="cls-58" transform="translate(1412.48 3287.06)">SWD</text><text class="cls-58" transform="translate(1943.36 3252.22)">2</text><text class="cls-56" transform="translate(1974.12 3252.22)">0</text><text class="cls-58" transform="translate(2006.36 3252.22)">2</text><text class="cls-56" transform="translate(2037.12 3252.22)">1 </text><text class="cls-58" transform="translate(1943.36 3305.59)">J</text><text class="cls-56" transform="translate(1971.9 3305.59)">anua<tspan class="cls-66" x="97.48" y="0">r</tspan><tspan x="115.58" y="0">y</tspan></text><text class="cls-56" transform="translate(1245.9 3284.24)">Joined </text><circle id="abdb3fbf-f68e-433e-a33f-153626b38c76-29" data-name="abdb3fbf-f68e-433e-a33f-153626b38c76" class="cls-33" cx="-64.3" cy="3260.66" r="52.6" transform="translate(-380.67 910.06) rotate(-45)"/><rect class="cls-7" x="1020.9" y="3413.1" width="712.6" height="203.8"/><text class="cls-56" transform="translate(1153.59 3492.73) scale(0.98 1)">More and more</text><text class="cls-58" transform="translate(1153.59 3546.09) scale(0.98 1)">HTML</text><text class="cls-56" transform="translate(1280.86 3546.09) scale(0.98 1)">, </text><text class="cls-58" transform="translate(1307.04 3546.09) scale(0.98 1)"><tspan class="cls-67">C</tspan><tspan x="28.02" y="0">SS</tspan></text><text class="cls-56" transform="translate(1402.31 3546.09) scale(0.98 1)"><tspan xml:space="preserve"> and </tspan></text><text class="cls-58" transform="translate(1508.85 3546.09) scale(0.98 1)">JS</text><text class="cls-58" transform="translate(1946.48 3502.65)">2</text><text class="cls-56" transform="translate(1977.23 3502.65)">0</text><text class="cls-58" transform="translate(2009.48 3502.65)">2</text><text class="cls-56" transform="translate(2040.23 3502.65)">1 </text><text class="cls-58" transform="translate(1946.48 3556.02)">F</text><text class="cls-56" transform="translate(1975.38 3556.02)">ebrua<tspan class="cls-66" x="116.96" y="0">r</tspan><tspan x="135.05" y="0">y</tspan></text><line class="cls-6" x1="1879.5" y1="3521" x2="1740.9" y2="3521"/><circle id="abdb3fbf-f68e-433e-a33f-153626b38c76-30" data-name="abdb3fbf-f68e-433e-a33f-153626b38c76" class="cls-4" cx="-60.67" cy="3514.36" r="52.6" transform="translate(-559 986.94) rotate(-45)"/><text class="cls-58" transform="translate(1950.92 3742.91)">2</text><text class="cls-56" transform="translate(1981.68 3742.91)">0</text><text class="cls-58" transform="translate(2013.92 3742.91)">2</text><text class="cls-56" transform="translate(2044.68 3742.91)">1 </text><text class="cls-58" transform="translate(1950.92 3796.27)">M</text><text class="cls-56" transform="translate(1992.43 3796.27)"><tspan class="cls-68">a</tspan><tspan x="22.55" y="0">y</tspan></text><rect class="cls-2" x="1018.3" y="3667.3" width="726.4" height="203.8"/><text class="cls-56" transform="translate(1136.23 3752.88)"><tspan class="cls-69">L</tspan><tspan x="22.55" y="0">earned libraries li</tspan><tspan class="cls-70" x="371.36" y="0">k</tspan><tspan x="393.42" y="0">e </tspan></text><text class="cls-58" transform="translate(1136.23 3806.24)">Bootstrap</text><text class="cls-56" transform="translate(1370.07 3806.24)"><tspan xml:space="preserve"> and </tspan></text><text class="cls-58" transform="translate(1478.65 3806.24)">jQue<tspan class="cls-66" x="96.23" y="0">r</tspan><tspan x="114.33" y="0">y</tspan></text><circle id="abdb3fbf-f68e-433e-a33f-153626b38c76-31" data-name="abdb3fbf-f68e-433e-a33f-153626b38c76" class="cls-31" cx="-64.31" cy="3752.47" r="52.6" transform="translate(-728.43 1054.1) rotate(-45)"/><polygon class="cls-31" points="1881.7 4145.8 1974.8 3984.6 1788.7 3984.6 1881.7 4145.8"/><text class="cls-56" transform="translate(1653.66 4196.58)">More </text><text class="cls-58" transform="translate(1784.85 4196.58)">Journey</text><text class="cls-56" transform="translate(1969.4 4196.58)"><tspan xml:space="preserve"> Ahead</tspan></text><rect id="e5d95e83-bdd9-4322-95a9-5a9c4b449a8f-4" data-name="e5d95e83-bdd9-4322-95a9-5a9c4b449a8f" class="cls-32" x="2116.3" y="2175.4" width="53.7" height="156.8"/><rect id="ac5bf8cc-574d-4509-9338-881c836fd832-5" data-name="ac5bf8cc-574d-4509-9338-881c836fd832" class="cls-4" x="2116.3" y="3685.5" width="53" height="159"/><rect id="ad5a043d-52f1-4931-b771-e4991ef7f7f7-4" data-name="ad5a043d-52f1-4931-b771-e4991ef7f7f7" class="cls-31" x="2116.3" y="2692.7" width="53.4" height="161.6"/></g><path class="cls-32" d="M-852.2,1219.1c-6.5-38.3,34.5-50.2,48-100.9,7.7-28.9-5.3-26.4,1.9-73.4,7.5-48.6,24.1-69.9,35.1-80.9,13.7-13.8,23.7-23.9,36.7-22.6,26.2,2.5,28.2,48.1,77.2,102.5,21.4,23.8,45.2,50.1,78.4,53.9,41.5,4.7,58.4-30.8,81.2-23.8,45.5,14,24.3,189.3.5,189.8-5.5.1-12.7-8.9-15.2-12.1-8.5-10.6-8.3-19.9-10.6-28.9-5.8-22.7-26.1-38.2-34.3-44.4-5.6-4.2-26-19.4-55-22.6-47.1-5.3-82.1,24.8-90.8,33-26.9,25.2-16.5,40.8-47.6,66.1-9.7,7.9-35.9,29.2-60.9,22-14.2-4.1-23.3-16.1-29.5-24.2C-837.8,1251.6-849.2,1236.5-852.2,1219.1Z" transform="translate(1943.8 0.5)"/><path class="cls-4" d="M-709.9,1200.6c7.6-10,16.7-21.7,34-31.1,13.4-7.3,26.5-10.3,34.9-12.1,12.1-2.7,20.3-4.6,31.6-3.8,20.3,1.5,35.5,10.2,46.6,16.6,14,8.1,21.2,15.5,23.3,17.7,6.6,7.1,6.5,9.6,10.4,13.9,16.6,18.6,48.6,7.7,58.9,21.6,7.6,10.4-1,28.9-13.9,38-9.7,6.9-20.6,7.4-38.4,7.9-30.9,1-38.1-6.1-64.9-4.9-16,.7-27,4-43.4,8.5-30.8,8.6-41.5,17.3-57.1,22.9-53,19-124.1-11.8-124.4-22.6-.2-6.7,48.5.5,77.3-27.2C-721.9,1233.6-728.8,1225.5-709.9,1200.6Z" transform="translate(1943.8 0.5)"/><path class="cls-33" d="M-511.9,993.7c29.6,7,47,30.9,52.7,38.8,47.2,64.9-.6,236-34.9,232.5-21.3-2.2-37.7-71.5-40.7-113-3.9-52.8,13.5-63.4,0-109.1-5.2-17.7-14.7-39.5-3.7-48C-531,989.2-517.6,992.3-511.9,993.7Z" transform="translate(1943.8 0.5)"/><path class="cls-31" d="M-806.4,1277c-41.7-11.2-56.8-81.7-42.2-125.4a111.89,111.89,0,0,1,15.4-29.5c21.9-30,41.8-26.3,55.1-45.3,21.1-30.1-16.3-57.2,2.4-102.9,1.7-4.2,16.1-38.3,39-38.3,23.9,0,50,37.3,53.2,70.4.9,9.8-.3,17.5-17.3,61-27.4,70.1-31.5,69-33.1,86.9-3.7,43.1,19.9,54.9,8.1,81.9C-738,1263.5-777.5,1284.8-806.4,1277Z" transform="translate(1943.8 0.5)"/></svg>