<svg xmlns="http://www.w3.org/2000/svg" viewBox="0 0 326.07 641.77"><defs><style>.cls-1,.cls-11{fill:none;stroke-miterlimit:10;}.cls-1{stroke:#ccc;stroke-width:2px;}.cls-2{fill:#fffae9;}.cls-3{fill:#9daaf2;}.cls-10,.cls-13,.cls-4,.cls-6{fill:#f9a826;}.cls-5{fill:#f4db7d;}.cls-6{font-size:9.59px;}.cls-10,.cls-12,.cls-13,.cls-6,.cls-9{font-family:Aldrich-Regular, Aldrich;}.cls-12,.cls-14,.cls-7,.cls-9{fill:#fff;}.cls-8{fill:#3f3d56;}.cls-10,.cls-12,.cls-13,.cls-9{font-size:12px;}.cls-11{stroke:#3f3d56;stroke-width:3px;}.cls-12,.cls-13{isolation:isolate;}.cls-14{letter-spacing:0em;}</style></defs><g id="Layer_2" data-name="Layer 2"><g id="e7334088-53de-4589-99a2-090044ddfc90"><g id="smaller_screen" data-name="smaller screen"><line class="cls-1" x1="247.3" y1="173.54" x2="206.9" y2="173.54"/><rect class="cls-2" x="246.68" y="27.5" width="2" height="551.9"/><line class="cls-1" x1="248.68" y1="27.5" x2="208.28" y2="27.5"/><line class="cls-1" x1="246.71" y1="301.57" x2="209.8" y2="301.57"/><circle id="abdb3fbf-f68e-433e-a33f-153626b38c76" class="cls-3" cx="247.3" cy="173.54" r="14.2"/><circle id="abdb3fbf-f68e-433e-a33f-153626b38c76-2" data-name="abdb3fbf-f68e-433e-a33f-153626b38c76" class="cls-4" cx="247.68" cy="27.5" r="14.2"/><circle id="abdb3fbf-f68e-433e-a33f-153626b38c76-3" data-name="abdb3fbf-f68e-433e-a33f-153626b38c76" class="cls-4" cx="247.68" cy="237.56" r="14.2"/><line class="cls-1" x1="248.68" y1="97.31" x2="208.28" y2="97.31"/><circle id="abdb3fbf-f68e-433e-a33f-153626b38c76-4" data-name="abdb3fbf-f68e-433e-a33f-153626b38c76" class="cls-5" cx="248.68" cy="97.31" r="14.2"/><circle id="abdb3fbf-f68e-433e-a33f-153626b38c76-5" data-name="abdb3fbf-f68e-433e-a33f-153626b38c76" class="cls-5" cx="246.68" cy="301.57" r="14.2"/><text class="cls-6" transform="translate(264.88 25.55) scale(1.25 1)">2<tspan class="cls-7" x="6.62" y="0">0</tspan><tspan x="13.62" y="0">2</tspan><tspan class="cls-7" x="20.23" y="0">0 </tspan><tspan x="0" y="11.51">A</tspan><tspan class="cls-7" x="6.72" y="11.51">pril</tspan></text><rect class="cls-8" x="12.28" width="196" height="55"/><text class="cls-9" transform="translate(19.91 23.03)">First got in touch with <tspan class="cls-4" x="142.1" y="0">HTML</tspan><tspan x="177.05" y="0">,</tspan><tspan class="cls-4"><tspan x="0" y="14.4">CSS</tspan><tspan class="cls-7" x="26.17" y="14.4" xml:space="preserve"> and </tspan><tspan x="55.45" y="14.4">JS</tspan><tspan class="cls-7" x="71.81" y="14.4" xml:space="preserve"> in </tspan><tspan x="89.64" y="14.4">MIMO</tspan><tspan class="cls-7" x="124.72" y="14.4" xml:space="preserve"> app</tspan></tspan></text><text class="cls-10" transform="translate(264.76 93.98)">2<tspan class="cls-7" x="8.28" y="0">0</tspan><tspan x="17.04" y="0">2</tspan><tspan class="cls-7" x="25.32" y="0">0</tspan><tspan x="0" y="14.4">J</tspan><tspan class="cls-7" x="7.72" y="14.4">uly</tspan></text><rect class="cls-11" x="13.8" y="68.73" width="193.09" height="55"/><text class="cls-9" transform="translate(34.1 85.26)">Joined a free <tspan class="cls-4" x="84.76" y="0">Facebook</tspan><tspan x="0" y="14.4">Group and practised with</tspan><tspan x="0" y="28.8">My father’s computer</tspan></text><line class="cls-1" x1="246.71" y1="501.86" x2="206.31" y2="501.86"/><rect class="cls-8" x="12.28" y="139.2" width="196" height="55"/><text class="cls-9"><tspan x="45.49" y="163.47">Got my first personal</tspan><tspan class="cls-4"><tspan x="45.49" y="177.87">computer</tspan></tspan></text><text class="cls-10" transform="translate(263.92 169.71)">2<tspan class="cls-7" x="8.28" y="0">0</tspan><tspan x="17.04" y="0">2</tspan><tspan class="cls-7" x="25.32" y="0">0 </tspan><tspan x="0" y="14.4">D</tspan><tspan class="cls-7" x="9.13" y="14.4">ecember</tspan></text><text class="cls-10" transform="translate(265 240.03)">2<tspan class="cls-7" x="8.28" y="0">0</tspan><tspan x="17.04" y="0">2</tspan><tspan class="cls-7" x="25.32" y="0">1</tspan></text><rect class="cls-11" x="13.8" y="274.07" width="196" height="55"/><text class="cls-12" transform="translate(72.9 306.38)">Joined </text><text class="cls-10" transform="translate(264.76 300.14)">2<tspan class="cls-7" x="8.28" y="0">0</tspan><tspan x="17.04" y="0">2</tspan><tspan class="cls-7" x="25.32" y="0">1 </tspan><tspan x="0" y="14.4">J</tspan><tspan class="cls-7" x="7.72" y="14.4">anuary</tspan></text><text class="cls-13" transform="translate(117.61 306.38)">BWD</text><line class="cls-1" x1="249.65" y1="369.07" x2="208.95" y2="369.07"/><rect class="cls-8" x="12.95" y="341.57" width="196" height="55"/><text class="cls-13" transform="translate(120.66 376.17)">SWD</text><text class="cls-10" transform="translate(263.92 366.77)">2<tspan class="cls-7" x="8.28" y="0">0</tspan><tspan x="17.04" y="0">2</tspan><tspan class="cls-7" x="25.32" y="0">1 </tspan><tspan x="0" y="14.4">J</tspan><tspan class="cls-7" x="7.72" y="14.4">anuary</tspan></text><text class="cls-12" transform="translate(75.71 375.41)">Joined </text><circle id="abdb3fbf-f68e-433e-a33f-153626b38c76-6" data-name="abdb3fbf-f68e-433e-a33f-153626b38c76" class="cls-3" cx="246.68" cy="369.17" r="14.2"/><rect class="cls-11" x="14.94" y="410.2" width="192.32" height="55"/><text class="cls-9" transform="translate(50.8 431.67) scale(0.98 1)">More and more<tspan class="cls-4"><tspan x="0" y="14.4">HTML</tspan><tspan class="cls-14" x="34.96" y="14.4">, </tspan><tspan x="42.23" y="14.4">CSS</tspan><tspan class="cls-7" x="68.4" y="14.4" xml:space="preserve"> and </tspan><tspan x="97.68" y="14.4">JS</tspan></tspan></text><text class="cls-10" transform="translate(264.76 434.34)">2<tspan class="cls-7" x="8.28" y="0">0</tspan><tspan x="17.04" y="0">2</tspan><tspan class="cls-7" x="25.32" y="0">1 </tspan><tspan x="0" y="14.4">F</tspan><tspan class="cls-7" x="7.8" y="14.4">ebruary</tspan></text><line class="cls-1" x1="246.71" y1="439.33" x2="209.25" y2="439.33"/><circle id="abdb3fbf-f68e-433e-a33f-153626b38c76-7" data-name="abdb3fbf-f68e-433e-a33f-153626b38c76" class="cls-4" cx="247.68" cy="437.7" r="14.2"/><text class="cls-10" transform="translate(265.96 499.18)">2<tspan class="cls-7" x="8.28" y="0">0</tspan><tspan x="17.04" y="0">2</tspan><tspan class="cls-7" x="25.32" y="0">1 </tspan><tspan x="0" y="14.4">M</tspan><tspan class="cls-7" x="11.19" y="14.4">ay</tspan></text><rect class="cls-8" x="14.25" y="478.83" width="196" height="55"/><text class="cls-9" transform="translate(46.12 501.86)">Learned libraries like <tspan class="cls-4"><tspan x="0" y="14.4">Bootstrap</tspan><tspan class="cls-7" x="63.13" y="14.4" xml:space="preserve"> and </tspan><tspan x="92.41" y="14.4">jQuery</tspan></tspan></text><circle id="abdb3fbf-f68e-433e-a33f-153626b38c76-8" data-name="abdb3fbf-f68e-433e-a33f-153626b38c76" class="cls-5" cx="246.71" cy="501.86" r="14.2"/><polygon class="cls-5" points="247.27 607.91 272.39 564.4 222.14 564.4 247.27 607.91"/><text class="cls-9" transform="translate(185.74 621.59)">More <tspan class="cls-4" x="35.42" y="0">Journey</tspan><tspan x="85.21" y="0" xml:space="preserve"> Ahead</tspan></text><rect id="ad5a043d-52f1-4931-b771-e4991ef7f7f7" class="cls-5" y="612.92" width="81.03" height="28.85"/><rect id="e5d95e83-bdd9-4322-95a9-5a9c4b449a8f" class="cls-2" y="547.29" width="28.12" height="65.64"/><rect id="e5d95e83-bdd9-4322-95a9-5a9c4b449a8f-2" data-name="e5d95e83-bdd9-4322-95a9-5a9c4b449a8f" class="cls-2" x="310.54" y="76.17" width="14.5" height="42.28"/><rect id="ac5bf8cc-574d-4509-9338-881c836fd832" class="cls-4" x="28.12" y="547.29" width="28.55" height="65.64"/><rect id="ac5bf8cc-574d-4509-9338-881c836fd832-2" data-name="ac5bf8cc-574d-4509-9338-881c836fd832" class="cls-4" x="310.62" y="483.71" width="14.27" height="42.92"/><rect id="ad5a043d-52f1-4931-b771-e4991ef7f7f7-2" data-name="ad5a043d-52f1-4931-b771-e4991ef7f7f7" class="cls-5" x="310.54" y="215.75" width="14.42" height="43.62"/></g></g></g></svg>