<svg xmlns="http://www.w3.org/2000/svg" viewBox="0 0 1132.2 1168.4"><defs><style>.cls-1,.cls-11{fill:#ff6a3d;}.cls-12,.cls-2{fill:#f4db7d;}.cls-3{fill:#fffae9;}.cls-4,.cls-5{fill:none;}.cls-4{stroke:#ccc;stroke-width:2px;}.cls-4,.cls-5,.cls-6{stroke-miterlimit:10;}.cls-5,.cls-6{stroke:#3f3d56;stroke-width:3px;}.cls-6,.cls-7{fill:#3f3d56;}.cls-8{fill:#9daaf2;}.cls-10,.cls-11,.cls-12,.cls-13,.cls-14,.cls-9{isolation:isolate;font-family:Aldrich-Regular, Aldrich;}.cls-10,.cls-11,.cls-12,.cls-9{font-size:20.17px;}.cls-14,.cls-9{fill:#fff;}.cls-10,.cls-13{fill:#f9a826;}.cls-13,.cls-14{font-size:17.74px;}</style></defs><g id="Layer_2" data-name="Layer 2"><g id="e7334088-53de-4589-99a2-090044ddfc90"><g id="large_screen" data-name="large screen"><rect id="ac5bf8cc-574d-4509-9338-881c836fd832" class="cls-1" x="814.7" width="85.6" height="38.6"/><rect id="ad5a043d-52f1-4931-b771-e4991ef7f7f7" class="cls-2" x="260" width="132.9" height="38.6"/><rect id="e5d95e83-bdd9-4322-95a9-5a9c4b449a8f" class="cls-3" x="579.5" width="85.6" height="38.6"/><line class="cls-4" x1="788.5" y1="282.2" x2="788.5" y2="219.5"/><rect class="cls-5" x="400.9" y="352.7" width="311.3" height="92.1"/><line class="cls-4" x1="315.4" y1="291.2" x2="315.4" y2="223.5"/><line class="cls-4" x1="785.4" y1="599.3" x2="785.4" y2="531.6"/><line class="cls-4" x1="555.4" y1="533.3" x2="471.1" y2="533.3"/><rect class="cls-6" x="161.6" y="488.9" width="311.3" height="92.1"/><rect class="cls-7" x="158.2" y="130.6" width="311.3" height="92.1"/><rect class="cls-6" x="630.9" y="131" width="311.3" height="92.1"/><line class="cls-4" x1="553.8" y1="352.3" x2="553.8" y2="284.7"/><rect class="cls-3" x="554.6" y="531.6" width="388.1" height="3.3"/><rect class="cls-3" x="311.6" y="282.2" width="629.5" height="3.3"/><rect class="cls-3" x="553.1" y="534.9" width="3" height="216"/><rect class="cls-3" x="940.4" y="281.4" width="3" height="252.7"/><rect class="cls-3" x="554.6" y="746.9" width="388.1" height="3.3"/><line class="cls-4" x1="555.4" y1="748.5" x2="471.1" y2="748.5"/><ellipse id="abdb3fbf-f68e-433e-a33f-153626b38c76" class="cls-2" cx="788.8" cy="281.9" rx="22.6" ry="23.8"/><ellipse id="abdb3fbf-f68e-433e-a33f-153626b38c76-2" data-name="abdb3fbf-f68e-433e-a33f-153626b38c76" class="cls-2" cx="555.2" cy="532.9" rx="22.6" ry="23.8"/><ellipse id="abdb3fbf-f68e-433e-a33f-153626b38c76-3" data-name="abdb3fbf-f68e-433e-a33f-153626b38c76" class="cls-8" cx="553.1" cy="284.8" rx="22.6" ry="23.8"/><ellipse id="abdb3fbf-f68e-433e-a33f-153626b38c76-4" data-name="abdb3fbf-f68e-433e-a33f-153626b38c76" class="cls-8" cx="785.5" cy="531.2" rx="22.6" ry="23.8"/><ellipse id="abdb3fbf-f68e-433e-a33f-153626b38c76-5" data-name="abdb3fbf-f68e-433e-a33f-153626b38c76" class="cls-1" cx="314.7" cy="280" rx="22.6" ry="23.8"/><ellipse id="abdb3fbf-f68e-433e-a33f-153626b38c76-6" data-name="abdb3fbf-f68e-433e-a33f-153626b38c76" class="cls-1" cx="554.4" cy="748.1" rx="22.6" ry="23.8"/><rect class="cls-5" x="630.2" y="599.7" width="311.3" height="92.1"/><text class="cls-9" transform="translate(238.76 542.43) scale(0.95 1)">Joined </text><text class="cls-10" transform="translate(310.02 542.43) scale(0.95 1)">SWD</text><rect class="cls-5" x="161.6" y="702.5" width="311.3" height="92.1"/><ellipse id="abdb3fbf-f68e-433e-a33f-153626b38c76-7" data-name="abdb3fbf-f68e-433e-a33f-153626b38c76" class="cls-1" cx="940" cy="398.4" rx="22.6" ry="23.8"/><text class="cls-9" transform="translate(727.89 652.72) scale(0.95 1)">Joined </text><text class="cls-10" transform="translate(795.28 652.72) scale(0.95 1)">BWD</text><rect class="cls-3" x="941.9" y="746.9" width="3" height="351.3"/><line class="cls-4" x1="946.4" y1="922.1" x2="862.2" y2="922.1"/><ellipse id="abdb3fbf-f68e-433e-a33f-153626b38c76-8" data-name="abdb3fbf-f68e-433e-a33f-153626b38c76" class="cls-8" cx="941.7" cy="921.1" rx="22.6" ry="23.8"/><rect class="cls-6" x="550.4" y="875.3" width="311.3" height="92.1"/><rect id="ad5a043d-52f1-4931-b771-e4991ef7f7f7-2" data-name="ad5a043d-52f1-4931-b771-e4991ef7f7f7" class="cls-1" y="382.9" width="39.6" height="106.2"/><rect id="e5d95e83-bdd9-4322-95a9-5a9c4b449a8f-2" data-name="e5d95e83-bdd9-4322-95a9-5a9c4b449a8f" class="cls-3" x="1083.3" y="881.2" width="48.9" height="92.1"/><rect id="ac5bf8cc-574d-4509-9338-881c836fd832-2" data-name="ac5bf8cc-574d-4509-9338-881c836fd832" class="cls-1" x="1083.3" y="598.3" width="48.9" height="91.3"/><rect id="ac5bf8cc-574d-4509-9338-881c836fd832-3" data-name="ac5bf8cc-574d-4509-9338-881c836fd832" class="cls-8" x="1083.3" y="131.4" width="48.9" height="91.3"/><text class="cls-9" transform="translate(174.32 170.86) scale(0.95 1)">First got in touch with </text><text class="cls-11" transform="translate(400.22 170.86) scale(0.95 1)">HTML</text><text class="cls-9" transform="translate(455.87 170.86) scale(0.95 1)">,</text><text class="cls-10" transform="translate(174.32 195.06) scale(0.95 1)">CSS</text><text class="cls-9" transform="translate(215.97 195.06) scale(0.95 1)"><tspan xml:space="preserve"> and </tspan></text><text class="cls-10" transform="translate(262.39 195.06) scale(0.95 1)">JS</text><text class="cls-9" transform="translate(288.47 195.06) scale(0.95 1)"><tspan xml:space="preserve"> in </tspan></text><text class="cls-12" transform="translate(316.76 195.06) scale(0.95 1)">MIMO</text><text class="cls-9" transform="translate(372.57 195.06) scale(0.95 1)"><tspan xml:space="preserve"> app</tspan></text><text class="cls-9" transform="translate(633.78 181.59) scale(0.95 1)">Got my first personal </text><text class="cls-10" transform="translate(848.55 181.59) scale(0.95 1)">computer</text><text class="cls-9" transform="translate(437.68 379.98) scale(0.95 1)">Joined a free </text><text class="cls-10" transform="translate(572.49 379.98) scale(0.95 1)">Facebook</text><text class="cls-9" transform="translate(437.68 404.19) scale(0.95 1)">Group and practised with</text><text class="cls-9" transform="translate(437.68 428.39) scale(0.95 1)">My father’s computer</text><text class="cls-10" transform="translate(509.72 256.17) scale(0.95 1)">2</text><text class="cls-9" transform="translate(522.92 256.17) scale(0.95 1)">0</text><text class="cls-10" transform="translate(536.75 256.17) scale(0.95 1)">2</text><text class="cls-9" transform="translate(549.94 256.17) scale(0.95 1)">0 </text><text class="cls-10" transform="translate(569.66 256.17) scale(0.95 1)">J</text><text class="cls-9" transform="translate(581.9 256.17) scale(0.95 1)">uly</text><text class="cls-10" transform="translate(257.82 324.47) scale(0.95 1)">2</text><text class="cls-9" transform="translate(271.01 324.47) scale(0.95 1)">0</text><text class="cls-10" transform="translate(284.84 324.47) scale(0.95 1)">2</text><text class="cls-9" transform="translate(298.04 324.47) scale(0.95 1)">0 </text><text class="cls-10" transform="translate(317.75 324.47) scale(0.95 1)">A</text><text class="cls-9" transform="translate(331.1 324.47) scale(0.95 1)">pril</text><text class="cls-10" transform="translate(722.11 328.71) scale(0.95 1)">2</text><text class="cls-9" transform="translate(735.31 328.71) scale(0.95 1)">0</text><text class="cls-10" transform="translate(749.14 328.71) scale(0.95 1)">2</text><text class="cls-9" transform="translate(762.33 328.71) scale(0.95 1)">0 </text><text class="cls-10" transform="translate(782.04 328.71) scale(0.95 1)">D</text><text class="cls-9" transform="translate(796.51 328.71) scale(0.95 1)">ecember</text><text class="cls-10" transform="translate(974.29 404.19) scale(0.95 1)">2</text><text class="cls-9" transform="translate(987.48 404.19) scale(0.95 1)">0</text><text class="cls-10" transform="translate(1001.32 404.19) scale(0.95 1)">2</text><text class="cls-9" transform="translate(1014.51 404.19) scale(0.95 1)">1</text><text class="cls-10" transform="translate(726.36 490.82) scale(0.95 1)">2</text><text class="cls-9" transform="translate(739.56 490.82) scale(0.95 1)">0</text><text class="cls-10" transform="translate(753.39 490.82) scale(0.95 1)">2</text><text class="cls-9" transform="translate(766.58 490.82) scale(0.95 1)">1 </text><text class="cls-10" transform="translate(778.98 490.82) scale(0.95 1)">J</text><text class="cls-9" transform="translate(791.22 490.82) scale(0.95 1)">anuary</text><text class="cls-10" transform="translate(491.15 499.3) scale(0.95 1)">2</text><text class="cls-9" transform="translate(504.35 499.3) scale(0.95 1)">0</text><text class="cls-10" transform="translate(518.18 499.3) scale(0.95 1)">2</text><text class="cls-9" transform="translate(531.37 499.3) scale(0.95 1)">1 </text><text class="cls-10" transform="translate(543.77 499.3) scale(0.95 1)">J</text><text class="cls-9" transform="translate(556.01 499.3) scale(0.95 1)">anuary</text><text class="cls-9" transform="translate(219.48 738.76) scale(0.95 1)">More and more</text><text class="cls-10" transform="translate(219.48 762.96) scale(0.95 1)">HTML</text><text class="cls-9" transform="translate(275.12 762.96) scale(0.95 1)">, </text><text class="cls-10" transform="translate(286.57 762.96) scale(0.95 1)">CSS</text><text class="cls-9" transform="translate(328.22 762.96) scale(0.95 1)"><tspan xml:space="preserve"> and </tspan></text><text class="cls-10" transform="translate(374.8 762.96) scale(0.95 1)">JS</text><text class="cls-10" transform="translate(489.62 795.13) scale(0.95 1)">2</text><text class="cls-9" transform="translate(502.82 795.13) scale(0.95 1)">0</text><text class="cls-10" transform="translate(516.65 795.13) scale(0.95 1)">2</text><text class="cls-9" transform="translate(529.85 795.13) scale(0.95 1)">1 </text><text class="cls-10" transform="translate(542.25 795.13) scale(0.95 1)">F</text><text class="cls-9" transform="translate(554.65 795.13) scale(0.95 1)">ebruary</text><text class="cls-9" transform="translate(601.29 913.54) scale(0.95 1)">Learned libraries like </text><text class="cls-10" transform="translate(601.29 937.74) scale(0.95 1)">Bootstrap</text><text class="cls-9" transform="translate(701.6 937.74) scale(0.95 1)"><tspan xml:space="preserve"> and </tspan></text><text class="cls-10" transform="translate(748.18 937.74) scale(0.95 1)">jQuery</text><text class="cls-13" transform="translate(971.24 927.2) scale(1.08 1)">2</text><text class="cls-14" transform="translate(984.44 927.2) scale(1.08 1)">0</text><text class="cls-13" transform="translate(998.36 927.2) scale(1.08 1)">2</text><text class="cls-14" transform="translate(1011.55 927.2) scale(1.08 1)">1 </text><text class="cls-13" transform="translate(971.24 948.55) scale(1.08 1)">M</text><text class="cls-14" transform="translate(988.96 948.55) scale(1.08 1)">ay</text><text class="cls-9" transform="translate(823.53 1159.08) scale(0.95 1)">More </text><text class="cls-10" transform="translate(879.8 1159.08) scale(0.95 1)">Journey</text><text class="cls-9" transform="translate(958.98 1159.08) scale(0.95 1)"><tspan xml:space="preserve"> Ahead</tspan></text><polygon class="cls-2" points="942.7 1134.8 982.7 1061.5 902.9 1061.5 942.7 1134.8"/><rect id="ad5a043d-52f1-4931-b771-e4991ef7f7f7-3" data-name="ad5a043d-52f1-4931-b771-e4991ef7f7f7" class="cls-2" x="257.9" y="1005" width="76.8" height="163.4"/><rect id="ac5bf8cc-574d-4509-9338-881c836fd832-4" data-name="ac5bf8cc-574d-4509-9338-881c836fd832" class="cls-1" x="104.5" y="1096.5" width="153.5" height="71.8"/><rect id="ac5bf8cc-574d-4509-9338-881c836fd832-5" data-name="ac5bf8cc-574d-4509-9338-881c836fd832" class="cls-8" x="5.7" y="970.7" width="97.5" height="197.5"/><rect id="e5d95e83-bdd9-4322-95a9-5a9c4b449a8f-3" data-name="e5d95e83-bdd9-4322-95a9-5a9c4b449a8f" class="cls-3" x="188.5" y="925.8" width="69.3" height="170.7"/></g></g></g></svg>