<svg id="Layer_1" data-name="Layer 1" xmlns="http://www.w3.org/2000/svg" viewBox="0 0 1920 100"><defs><style>.cls-1{fill:#29375b;}.cls-2{fill:#1a2238;}.cls-3{fill:none;}</style></defs><path class="cls-1" d="M1920,21v79H0V71.91C32.67,58,88.94,45.33,126,37c25.33-5.69,53.1-11.94,82.77-17.3C297.32,3.69,402.7-4.42,510,33.57q6,2.1,12,4.43c62,23.93,66.46,40.58,116,48,77.5,11.61,114.36-25.08,178.09-50A298.66,298.66,0,0,1,862,22c69.66-15.12,115.34.83,161.83,20.27C1077.64,64.77,1132.55,92,1227,81c80-9.28,99.85-35.65,145.77-51.27,18-6.12,40-10.59,71.23-11.73,63.43-2.32,103.55,11.35,148.67,23.92C1625.05,51,1660,59.41,1708,61c66,2.19,111.2-18.17,145-32.72C1881.62,16,1902.06,7.83,1920,21Z"/><path class="cls-2" d="M1920,64.43V100H0V54C41.47,27.72,76.87,18.61,100,14.92c37.89-6.05,71.68-2.36,108.77,4.78C255.18,28.63,306.75,43,378,50.37c65.87,6.85,87.18-5.14,132-16.8,26.15-6.82,60.31-13.52,116-16.29C723,12.44,756.27,25.93,816.09,36c28.8,4.84,63.74,8.87,114.91,9.68,37.9.6,67.69-.85,92.83-3.37,89.08-8.94,119.84-31.46,246.17-25,45.52,2.33,77.6,7.1,102.77,12.45,63.61,13.54,83,30.81,163.23,21.82a509.92,509.92,0,0,0,56.67-9.63C1674.16,23.45,1722.22-6.22,1807,13.73a339.36,339.36,0,0,1,46,14.55C1879,38.52,1903.12,51.47,1920,64.43Z"/><path class="cls-3" d="M1400-357"/><rect class="cls-3" width="1920" height="100"/></svg>