<?xml version="1.0" encoding="utf-8"?>
<!-- Generator: Adobe Illustrator 25.2.0, SVG Export Plug-In . SVG Version: 6.00 Build 0)  -->
<svg version="1.1" id="Layer_1" xmlns="http://www.w3.org/2000/svg" xmlns:xlink="http://www.w3.org/1999/xlink" x="0px" y="0px"
	 viewBox="0 0 1920 1080" style="enable-background:new 0 0 1920 1080;" xml:space="preserve">
<style type="text/css">
	.st0{fill:#1A2238;}
	.st1{fill:#9DAAF2;}
	.st2{fill:#FF6A3D;}
	.st3{fill:#29375B;}
	.st4{fill:#F4DB7D;}
</style>
<rect class="st0" width="1920" height="1080"/>
<path class="st1" d="M1332.5,75.2c95.1,22.2,91.9,102.4,224.5,150c141.8,50.9,266-8,279,26.7c17.2,46-196.2,150.1-173,225
	c3.9,12.5,13.3,21,19,26c44.6,39.7,104.3-1,142,19c67.4,35.7,70.7,267.5-57,403c-47.4,50.3-97.5,70.8-156,95
	c-152.5,63.1-283.4,46.6-420,30c-86.2-10.5-185.5-23.5-195-68c-2-9.3-1.5-26.7,40-70c85.6-89.3,148.6-90.6,215-147
	c55.2-46.8,127-143.5,103-225c-23.3-79.3-133.4-136.2-224-133c-69,2.5-139.7,40.3-264,33c-9.2-0.5-17.1-1.2-21-7
	C811.8,383.7,1116.9,24.9,1332.5,75.2z"/>
<path class="st2" d="M1231.7,854.8c112.8-3.5,251.1-113.1,324.3-169.8c221.3-171.3,250.3-170.1,268-163c66,26.3,65.2,168.7,65,211
	c-0.3,53.1-1.2,222-109.9,300.6c-115.9,83.8-201.5-51.9-465.1,9.5c-45.2,10.5-144.6,38.1-244.2,0.6c-21.6-8.1-69.1-26.7-74.2-61.4
	c-4.4-30,25.2-56.8,40.5-70.5c51.4-46.3,122.8-52,169.8-55.7C1219,855,1228.1,854.9,1231.7,854.8z"/>
<path class="st3" d="M986.6,385c244.3-132.6,366.4-199,451.2-189c130.5,15.2,156.6,171.8,271,156.8c63-8.3,106.8-59.6,115.2-69.8
	c45.8-55.9,47.2-122.8,48-159.1c0.7-34.5,1.1-51.7-6-66.9c-24.6-52.6-115.3-55.1-433-44c-147.7,5.1-267.8,10.5-411,61
	c-44.2,15.6-79.7,31.6-112.9,63.7c-96.7,93.5-114.7,267.5-62.1,297.9C872,450,908.9,427.2,986.6,385z"/>
<path class="st4" d="M829.1,421c25.5,41.8,129,29.9,191.9,6c17.4-6.6,16.9-8.5,54.1-24.1c25.9-10.8,65.3-27.2,113-40.9
	c30.7-8.8,75.9-21.5,136.8-26c65.7-4.9,116.8,2.2,143.4,6c35.1,5,52.4,8.5,73.4,14.2c41.9,11.5,62.7,23.7,90,26.1
	c16,1.4,28.1-1.1,36.2-2.3c86.8-13.6,142.7-81.8,146-86c24.2-30.4,56.8-71.5,44-102c-7.6-18.1-33.6-38.2-245-35
	c-148.1,2.2-255.2,13.9-283,17c-63.2,7.1-153.6,19.1-264,45c-134.2,31.5-182.9,56.7-214,102C847.7,327.3,808,386.4,829.1,421z"/>
</svg>
