<svg xmlns="http://www.w3.org/2000/svg" viewBox="0 0 1159.1 2311.98"><defs><style>.cls-1,.cls-13{fill:none;stroke-miterlimit:10;}.cls-1{stroke:#ccc;stroke-width:2px;}.cls-2{fill:#fffae9;}.cls-3{fill:#9daaf2;}.cls-11,.cls-4,.cls-6{fill:#f9a826;}.cls-5{fill:#f4db7d;}.cls-11,.cls-6,.cls-7,.cls-9{isolation:isolate;font-family:Ubuntu-Regular, Ubuntu;}.cls-6,.cls-7{font-size:35.54px;}.cls-7,.cls-9{fill:#fff;}.cls-8{fill:#3f3d56;}.cls-11,.cls-9{font-size:44.47px;}.cls-10{letter-spacing:-0.01em;}.cls-12{letter-spacing:0.01em;}.cls-13{stroke:#3f3d56;stroke-width:3px;}.cls-14{letter-spacing:-0.05em;}.cls-15{letter-spacing:0.01em;}.cls-16{letter-spacing:-0.01em;}.cls-17{letter-spacing:-0.01em;}.cls-18{letter-spacing:0em;}.cls-19{letter-spacing:-0.02em;}.cls-20{letter-spacing:0.02em;}.cls-21{letter-spacing:0.01em;}.cls-22{letter-spacing:-0.01em;}.cls-23{letter-spacing:-0.01em;}.cls-24{letter-spacing:-0.03em;}</style></defs><g id="Layer_2" data-name="Layer 2"><g id="e7334088-53de-4589-99a2-090044ddfc90"><g id="smaller_screen" data-name="smaller screen"><line class="cls-1" x1="870.8" y1="643.3" x2="721.1" y2="643.3"/><rect class="cls-2" x="868.6" y="101.9" width="7.4" height="2045.3"/><line class="cls-1" x1="876" y1="101.9" x2="726.3" y2="101.9"/><line class="cls-1" x1="868.6" y1="1117.7" x2="731.9" y2="1117.7"/><circle id="abdb3fbf-f68e-433e-a33f-153626b38c76" class="cls-3" cx="870.8" cy="643.3" r="52.6"/><circle id="abdb3fbf-f68e-433e-a33f-153626b38c76-2" data-name="abdb3fbf-f68e-433e-a33f-153626b38c76" class="cls-4" cx="872.09" cy="101.94" r="52.6" transform="translate(605.69 938.58) rotate(-79)"/><circle id="abdb3fbf-f68e-433e-a33f-153626b38c76-3" data-name="abdb3fbf-f68e-433e-a33f-153626b38c76" class="cls-4" cx="872.45" cy="880.59" r="52.6" transform="translate(-136.53 1600.7) rotate(-80.78)"/><line class="cls-1" x1="876" y1="360.6" x2="726.3" y2="360.6"/><circle id="abdb3fbf-f68e-433e-a33f-153626b38c76-4" data-name="abdb3fbf-f68e-433e-a33f-153626b38c76" class="cls-5" cx="875.99" cy="360.63" r="52.6" transform="translate(387.39 1172.23) rotate(-81.33)"/><circle id="abdb3fbf-f68e-433e-a33f-153626b38c76-5" data-name="abdb3fbf-f68e-433e-a33f-153626b38c76" class="cls-5" cx="868.59" cy="1117.67" r="52.6" transform="translate(-535.91 941.55) rotate(-45)"/><text class="cls-6" transform="translate(936.02 94.71) scale(1.25 1)">2</text><text class="cls-7" transform="translate(966.62 94.71) scale(1.25 1)">0</text><text class="cls-6" transform="translate(999.08 94.71) scale(1.25 1)">2</text><text class="cls-7" transform="translate(1029.68 94.71) scale(1.25 1)">0 </text><text class="cls-6" transform="translate(936.02 137.33) scale(1.25 1)">A</text><text class="cls-7" transform="translate(967.08 137.33) scale(1.25 1)">pril</text><rect class="cls-8" width="726.4" height="203.8"/><text class="cls-9" transform="translate(28.22 85.37)">First got in <tspan class="cls-10" x="227.42" y="0">t</tspan><tspan x="244.67" y="0">ouch with </tspan></text><text class="cls-11" transform="translate(554.82 85.37)">HTML</text><text class="cls-9" transform="translate(684.53 85.37)">,</text><text class="cls-11" transform="translate(28.22 138.74)"><tspan class="cls-12">C</tspan><tspan x="28.02" y="0">SS</tspan></text><text class="cls-9" transform="translate(125.31 138.74)"><tspan xml:space="preserve"> and </tspan></text><text class="cls-11" transform="translate(233.52 138.74)">JS</text><text class="cls-9" transform="translate(294.3 138.74)"><tspan xml:space="preserve"> in </tspan></text><text class="cls-11" transform="translate(360.26 138.74)">MIMO</text><text class="cls-9" transform="translate(490.34 138.74)"><tspan xml:space="preserve"> app</tspan></text><text class="cls-11" transform="translate(935.58 348.3)">2</text><text class="cls-9" transform="translate(966.34 348.3)">0</text><text class="cls-11" transform="translate(998.58 348.3)">2</text><text class="cls-9" transform="translate(1029.33 348.3)">0</text><text class="cls-11" transform="translate(935.58 401.67)">J</text><text class="cls-9" transform="translate(964.11 401.67)">uly</text><rect class="cls-13" x="5.5" y="254.6" width="715.6" height="203.8"/><text class="cls-9" transform="translate(80.77 315.99)">Joined a free </text><text class="cls-11" transform="translate(395.03 315.99)"><tspan class="cls-14">F</tspan><tspan x="21.61" y="0">acebook</tspan></text><text class="cls-9" transform="translate(80.77 369.35)">Group and practised with</text><text class="cls-9" transform="translate(80.77 422.72)">My fathe<tspan class="cls-15" x="179.61" y="0">r</tspan><tspan x="197.4" y="0">’s </tspan><tspan class="cls-16" x="237.96" y="0">c</tspan><tspan x="258.06" y="0">ompu</tspan><tspan class="cls-17" x="374.3" y="0">t</tspan><tspan class="cls-18" x="391.73" y="0">er</tspan></text><line class="cls-1" x1="868.6" y1="1860" x2="718.9" y2="1860"/><rect class="cls-8" y="515.8" width="726.4" height="203.8"/><text class="cls-9" transform="translate(123.02 605.81)">Got <tspan class="cls-19" x="84.27" y="0">m</tspan><tspan x="121.76" y="0">y first personal</tspan></text><text class="cls-11" transform="translate(123.02 659.18)"><tspan class="cls-16">c</tspan><tspan x="20.1" y="0">ompu</tspan><tspan class="cls-17" x="136.35" y="0">t</tspan><tspan class="cls-18" x="153.78" y="0">er</tspan></text><text class="cls-11" transform="translate(932.46 628.94)">2</text><text class="cls-9" transform="translate(963.22 628.94)">0</text><text class="cls-11" transform="translate(995.46 628.94)">2</text><text class="cls-9" transform="translate(1026.22 628.94)">0 </text><text class="cls-11" transform="translate(932.46 682.3)">D</text><text class="cls-9" transform="translate(966.19 682.3)">ecember</text><text class="cls-11" transform="translate(936.47 889.54)">2</text><text class="cls-9" transform="translate(967.22 889.54)">0</text><text class="cls-11" transform="translate(999.46 889.54)">2</text><text class="cls-9" transform="translate(1030.22 889.54)">1</text><rect class="cls-13" x="5.5" y="1015.8" width="726.4" height="203.8"/><text class="cls-9" transform="translate(224.58 1135.45)">Joined </text><text class="cls-11" transform="translate(935.58 1112.32)">2</text><text class="cls-9" transform="translate(966.34 1112.32)">0</text><text class="cls-11" transform="translate(998.58 1112.32)">2</text><text class="cls-9" transform="translate(1029.34 1112.32)">1 </text><text class="cls-11" transform="translate(935.58 1165.69)">J</text><text class="cls-9" transform="translate(964.11 1165.69)">anua<tspan class="cls-20" x="97.48" y="0">r</tspan><tspan x="115.58" y="0">y</tspan></text><text class="cls-11" transform="translate(390.27 1135.45)"><tspan class="cls-16">B</tspan><tspan x="28.02" y="0">WD</tspan></text><line class="cls-1" x1="879.7" y1="1367.8" x2="728.9" y2="1367.8"/><rect class="cls-8" x="2.6" y="1265.9" width="726.4" height="203.8"/><text class="cls-11" transform="translate(401.58 1394.06)">SWD</text><text class="cls-11" transform="translate(932.46 1359.22)">2</text><text class="cls-9" transform="translate(963.22 1359.22)">0</text><text class="cls-11" transform="translate(995.46 1359.22)">2</text><text class="cls-9" transform="translate(1026.22 1359.22)">1 </text><text class="cls-11" transform="translate(932.46 1412.59)">J</text><text class="cls-9" transform="translate(961 1412.59)">anua<tspan class="cls-20" x="97.48" y="0">r</tspan><tspan x="115.58" y="0">y</tspan></text><text class="cls-9" transform="translate(235 1391.24)">Joined </text><circle id="abdb3fbf-f68e-433e-a33f-153626b38c76-6" data-name="abdb3fbf-f68e-433e-a33f-153626b38c76" class="cls-3" cx="868.6" cy="1368.16" r="52.6" transform="translate(-713.03 1014.92) rotate(-45)"/><rect class="cls-13" x="10" y="1520.1" width="712.6" height="203.8"/><text class="cls-9" transform="translate(142.69 1599.73) scale(0.98 1)">More and more</text><text class="cls-11" transform="translate(142.69 1653.09) scale(0.98 1)">HTML</text><text class="cls-9" transform="translate(269.96 1653.09) scale(0.98 1)">, </text><text class="cls-11" transform="translate(296.14 1653.09) scale(0.98 1)"><tspan class="cls-21">C</tspan><tspan x="28.02" y="0">SS</tspan></text><text class="cls-9" transform="translate(391.41 1653.09) scale(0.98 1)"><tspan xml:space="preserve"> and </tspan></text><text class="cls-11" transform="translate(497.95 1653.09) scale(0.98 1)">JS</text><text class="cls-11" transform="translate(935.58 1609.65)">2</text><text class="cls-9" transform="translate(966.33 1609.65)">0</text><text class="cls-11" transform="translate(998.58 1609.65)">2</text><text class="cls-9" transform="translate(1029.33 1609.65)">1 </text><text class="cls-11" transform="translate(935.58 1663.02)">F</text><text class="cls-9" transform="translate(964.48 1663.02)">ebrua<tspan class="cls-20" x="116.96" y="0">r</tspan><tspan x="135.05" y="0">y</tspan></text><line class="cls-1" x1="868.6" y1="1628" x2="730" y2="1628"/><circle id="abdb3fbf-f68e-433e-a33f-153626b38c76-7" data-name="abdb3fbf-f68e-433e-a33f-153626b38c76" class="cls-4" cx="872.23" cy="1621.86" r="52.6" transform="translate(-891.36 1091.79) rotate(-45)"/><text class="cls-11" transform="translate(940.02 1849.91)">2</text><text class="cls-9" transform="translate(970.78 1849.91)">0</text><text class="cls-11" transform="translate(1003.02 1849.91)">2</text><text class="cls-9" transform="translate(1033.78 1849.91)">1 </text><text class="cls-11" transform="translate(940.02 1903.27)">M</text><text class="cls-9" transform="translate(981.53 1903.27)"><tspan class="cls-22">a</tspan><tspan x="22.55" y="0">y</tspan></text><rect class="cls-8" x="7.4" y="1774.3" width="726.4" height="203.8"/><text class="cls-9" transform="translate(125.33 1859.88)"><tspan class="cls-23">L</tspan><tspan x="22.55" y="0">earned libraries li</tspan><tspan class="cls-24" x="371.36" y="0">k</tspan><tspan x="393.42" y="0">e </tspan></text><text class="cls-11" transform="translate(125.33 1913.24)">Bootstrap</text><text class="cls-9" transform="translate(359.17 1913.24)"><tspan xml:space="preserve"> and </tspan></text><text class="cls-11" transform="translate(467.75 1913.24)">jQue<tspan class="cls-20" x="96.23" y="0">r</tspan><tspan x="114.33" y="0">y</tspan></text><circle id="abdb3fbf-f68e-433e-a33f-153626b38c76-8" data-name="abdb3fbf-f68e-433e-a33f-153626b38c76" class="cls-5" cx="868.59" cy="1859.97" r="52.6" transform="translate(-1060.79 1158.96) rotate(-45)"/><polygon class="cls-5" points="870.8 2252.8 963.9 2091.6 777.8 2091.6 870.8 2252.8"/><text class="cls-9" transform="translate(642.76 2303.58)">More </text><text class="cls-11" transform="translate(773.95 2303.58)">Journey</text><text class="cls-9" transform="translate(958.5 2303.58)"><tspan xml:space="preserve"> Ahead</tspan></text><rect id="e5d95e83-bdd9-4322-95a9-5a9c4b449a8f" class="cls-2" x="1105.4" y="282.4" width="53.7" height="156.8"/><rect id="ac5bf8cc-574d-4509-9338-881c836fd832" class="cls-4" x="1105.4" y="1792.5" width="53" height="159"/><rect id="ad5a043d-52f1-4931-b771-e4991ef7f7f7" class="cls-5" x="1105.4" y="799.7" width="53.4" height="161.6"/></g></g></g></svg>