<svg id="Layer_1" data-name="Layer 1" xmlns="http://www.w3.org/2000/svg" viewBox="0 0 1920 1080"><defs><style>.cls-1{fill:#1a2238;}.cls-2{fill:#9daaf2;}.cls-3{fill:#f4db7d;}.cls-4{fill:#ff6a3d;}</style></defs><rect class="cls-1" width="1920" height="1080"/><path class="cls-2" d="M1332.47,75.25c90.58,25.17,95.61,103.76,224.52,150,141.83,50.91,266.55-7.3,279,26.72,16.75,45.75-209.33,149.53-187,220,4.34,13.69,17.1,21.38,33,31,58.89,35.65,107.39.67,142,19,67.38,35.7,70.72,267.49-57,403-47.45,50.34-97.51,70.79-156,95-152.51,63.13-283.39,46.64-420,30-86.16-10.5-185.48-23.48-195-68-2-9.26-1.53-26.67,40-70,85.57-89.28,148.55-90.56,215-147,55.15-46.83,127-143.48,103-225-30-101.82-194.12-128.2-224-133-165.5-26.6-264.18,56.21-283,29C811.33,384.42,1116.51,15.26,1332.47,75.25Z"/><path class="cls-3" d="M1231.7,854.75C1344.48,851.3,1482.84,741.63,1556,685c221.35-171.33,250.28-170.07,268-163,66,26.35,65.24,168.74,65,211-.3,53.1-1.25,222-109.91,300.55-115.86,83.78-201.51-51.88-465.08,9.48-45.17,10.51-144.6,38.12-244.16.64-21.61-8.14-69.14-26.7-74.25-61.37-4.43-30,25.25-56.78,40.49-70.5,51.41-46.32,122.76-52,169.78-55.73C1219,855,1228.05,854.86,1231.7,854.75Z"/><path class="cls-4" d="M986.64,385c244.29-132.64,366.43-199,451.2-189,130.54,15.25,156.56,171.84,271,156.8,63-8.28,106.84-59.59,115.19-69.78,45.81-55.89,47.24-122.8,48-159.08.73-34.48,1.1-51.72-6-66.92-24.6-52.62-115.33-55.07-433-44-147.66,5.15-267.77,10.54-411,61-44.22,15.58-79.74,31.6-112.9,63.7C812.48,231.22,794.41,405.27,847,435.62,872,450,908.93,427.22,986.64,385Z"/><path class="cls-2" d="M1292-110"/><path class="cls-2" d="M2064,131"/><path class="cls-2" d="M1394,1248"/></svg>