<svg id="e7334088-53de-4589-99a2-090044ddfc90" xmlns="http://www.w3.org/2000/svg" viewBox="0 0 528.31 591.37"><defs><style>.cls-1{fill:#ffb6b6;}.cls-2{fill:#2f2e41;}.cls-3{fill:#feb8b8;}.cls-4{fill:#daa520;}.cls-5{fill:#fbbebe;}.cls-6{fill:#3f3d56;}.cls-7{fill:#fff;}.cls-8{fill:none;}</style></defs><polygon class="cls-1" points="118.38 477.62 113.75 500.51 199.84 529.26 206.68 495.48 118.38 477.62"/><path class="cls-2" d="M127,469,117.91,514h0A29.31,29.31,0,0,1,83.37,537l-.93-.19L97.37,463Z" transform="translate(0 4.34)"/><circle id="fd4e5ab9-ffc8-4bbb-9267-3af70c31dae1" class="cls-3" cx="215.94" cy="103.82" r="58.46"/><path id="a8c9bbe2-1461-49cf-8211-f8d251166dc5" class="cls-2" d="M270.54,49.05a67.48,67.48,0,0,0-38.41-29.36L225,24.92v-6.8a61.8,61.8,0,0,0-11.61-.67l-6.19,5.6V17.91A66.84,66.84,0,0,0,161,45.35c-13.45,19.39-15.72,46.35-2.5,65.89,3.63-11.15,8-21.62,11.67-32.78a33,33,0,0,0,8.6,0l4.42-10.3,1.24,9.87c13.69-1.2,34-3.81,47-6.21l-1.26-7.58,7.55,6.3c4-.92,6.34-1.75,6.14-2.38,9.66,15.56,21.47,25.5,31.12,41.06C278.65,87.32,282.87,69.07,270.54,49.05Z" transform="translate(0 4.34)"/><ellipse id="f6be96d1-713f-4c17-812c-ecd79c56fe95" class="cls-2" cx="234.96" cy="444.26" rx="150.52" ry="42.1"/><path class="cls-4" d="M341.67,249.81c-2-12.09-4.08-24.42-9.7-35.31-3.7-7.14-9.56-13.94-17.47-15.35A17.32,17.32,0,0,1,310,198.1c-2.32-1.12-33.45-18.89-38.39-22-4.25-2.66-11-7.58-14.34-7.58s-16.44,3-67.35-1a184.51,184.51,0,0,0-24.8,12.2c-.17-.11-52.84,28.17-54.82,28.1-3.75-.16-7.23,2.24-9.38,5.26s-3.15,6.77-4.21,10.38c11.5,25.62,22,51.28,33.54,76.9a6.56,6.56,0,0,1,.83,3.15,7.69,7.69,0,0,1-1.43,3.16c-5.64,9.06-5.47,20.46-4.85,31.11s1.38,21.91-3.38,31.46c-1.29,2.62-3,5-4.21,7.64-2.88,5.94-3.93,24.92-2.24,31.3L326,414.23C321.44,401.76,341.67,249.81,341.67,249.81Z" transform="translate(0 4.34)"/><path id="eb41f72e-aba6-4a16-bf55-c7027d2f1a4b" class="cls-5" d="M78.43,301.49a37.2,37.2,0,0,0-.13,9.19l3,43.44c.28,4.1.56,8.18.94,12.27.73,7.92,1.81,15.79,3.16,23.64a4.2,4.2,0,0,0,4.31,4.09c13.32,2.82,27.08,2.71,40.67,1.94,20.73-1.16,73.79-3.35,77-7.56s1.35-11-2.87-14.42-74.24-11.71-74.24-11.71c.68-5.42,2.75-10.53,4.7-15.67,3.52-9.13,6.8-18.56,6.87-28.34s-3.62-20.06-11.64-25.66c-6.59-4.6-15.07-5.45-23.1-5.27-5.84.17-15.94-1.23-21.27,1.06C81.66,290.35,79.22,297.36,78.43,301.49Z" transform="translate(0 4.34)"/><path id="a363f2f7-2464-40a1-ad01-344825aa0b75" class="cls-2" d="M342.05,399.69c3.5-1.33,7.36-.85,11.12-.34,12.1,1.65,24.37,3.34,35.58,8.17,5.26,2.26,10.27,5.27,13.83,9.7,3.16,4,5,8.87,6.75,13.68l4,11.07a53.23,53.23,0,0,1,3.53,13c1.26,13.26-7.8,25.75-19.2,32.63s-24.82,9.34-37.9,11.91-26.2,5.41-39.22,8.42a156.24,156.24,0,0,1-18.45,3.63c-13.94,1.58-28.5-.75-41.75,3.87-5.26,1.84-10.43,4.57-15.89,5.85a99.12,99.12,0,0,1-11,1.67l-25.06,2.86A134.06,134.06,0,0,1,193.07,527c-10.94,0-21.71-2.59-32.34-5.18a8.22,8.22,0,0,1-3.16-1.27c-1.68-1.33-2-3.68-2.29-5.8q-1.62-14.13-2.82-28.27c-.25-3.06-.44-6.38,1.23-8.95,2.11-3.16,6.21-4.15,10-4.76a259.8,259.8,0,0,1,48.08-3.34c6.12-6.11,16.2-6.15,24.21-9.47a72.68,72.68,0,0,0,8.54-4.65,111.7,111.7,0,0,1,46.87-14.81,43.07,43.07,0,0,0,9.59-1.36c6.2-1.93,11.86-7.17,18.22-5.89.79-2.18,1.34-5.09,3.16-6.59.9-.77,2-1.28,2.85-2.1,1.76-1.78,1.92-4.58,1.65-7.07s-.85-5-.21-7.45a10.31,10.31,0,0,1,1.17-2.6C330.93,402,335.7,399.17,342.05,399.69Z" transform="translate(0 4.34)"/><path id="b53ad979-99f4-4c6e-a0f8-957060c42096" class="cls-4" d="M96.06,224.24A11,11,0,0,0,93.73,228a176.73,176.73,0,0,0-14.85,60.65,6,6,0,0,1-.68,2.94,12.89,12.89,0,0,1-1.55,1.67,5.81,5.81,0,0,0,.7,8.19l.29.23c1.74-3.27,5.9-4.33,9.59-4.62,17.7-1.4,35,6.83,52.73,6.21-1.26-4.32-3.06-8.48-4.08-12.86-4.51-19.44,6.75-40.61-.16-59.34-1.37-3.74-3.68-7.43-7.31-9.07a19.48,19.48,0,0,0-4.68-1.24c-4.49-.81-13.42-4.27-17.75-2.88-1.6.51-2.23,2-3.56,2.93C100.41,222.07,97.73,222.55,96.06,224.24Z" transform="translate(0 4.34)"/><path id="a1197c30-bfd4-4098-bcf9-2468e7a33bf1" class="cls-5" d="M341.8,288.49c-5.34-2.29-15.43-.89-21.28-1.06-8-.18-16.51.67-23.1,5.27-8,5.6-11.7,15.88-11.63,25.66s3.34,19.21,6.86,28.34c2,5.15,4,10.25,4.71,15.67,0,0-70,8.3-74.24,11.71s-6.12,10.21-2.88,14.42,104.38,8.44,117.7,5.62a4.2,4.2,0,0,0,4.31-4.09c1.35-7.85,2.43-15.72,3.16-23.64.38-4.09.66-8.17.95-12.27l3-43.44a37.19,37.19,0,0,0-.12-9.19C348.47,297.36,346,290.35,341.8,288.49Z" transform="translate(0 4.34)"/><path id="ebe46053-6aac-4aa7-8615-21a6fa79538d" class="cls-4" d="M325.26,220.79c-1.32-.91-1.95-2.42-3.55-2.93-4.34-1.39-13.27,2.07-17.75,2.88a19.56,19.56,0,0,0-4.69,1.24c-3.63,1.64-5.93,5.33-7.31,9.07-6.91,18.73,4.36,39.9-.16,59.34-1,4.38-2.82,8.54-4.07,12.86,17.74.62,35-7.61,52.72-6.21,3.7.29,7.86,1.35,9.59,4.62l.3-.23a5.81,5.81,0,0,0,.69-8.19,13.63,13.63,0,0,1-1.55-1.67,6.14,6.14,0,0,1-.68-2.94A176.72,176.72,0,0,0,334,228a11,11,0,0,0-2.34-3.74C330,222.55,327.28,222.07,325.26,220.79Z" transform="translate(0 4.34)"/><polygon class="cls-1" points="354.86 510.3 351.78 533.45 261.02 532.6 265.56 498.43 354.86 510.3"/><path class="cls-2" d="M378.09,503l-9.92,74.66-.95-.13A29.31,29.31,0,0,1,342,544.64h0l6.06-45.59Z" transform="translate(0 4.34)"/><path id="a0b0f7ea-4ed9-4447-aa64-e2335b2c3196" class="cls-2" d="M141.32,411.41c0,1-1.65,0-1.8-1.13-1.16-8.51-7.92-15.54-15.79-18.95s-16.84-3.59-25.37-2.77c-12.89,1.22-27.37,6.15-32.08,18.21-1.12,2.81-11.57,27.9-10.55,33.54,2.75,15.05,13,27.93,25.51,36.84s27.05,14.25,41.59,19.05a720.91,720.91,0,0,0,117.9,28.16c6.48,1,13,1.88,19.24,4,5.55,1.86,10.75,4.65,16.19,6.84,12.63,5.07,26.22,6.88,39.68,8.66,2.29.3,4.93.51,6.62-1.05,2.19-2,1.47-5.57.84-8.48a45.69,45.69,0,0,1,5.38-32.38c2.26-3.79,5.19-7.68,4.76-12.06-.5-5.12-5.6-8.74-10.67-9.56s-10.23.39-15.33,1.05a8.25,8.25,0,0,1-5.21-.51,10.06,10.06,0,0,1-2-1.81,23.08,23.08,0,0,0-26.89-3.76c-1.88,1.05-4.73-1.3-6.69-2.18l-22.14-10c-25.43-11.51-51-23.06-77.89-30.35a16.35,16.35,0,0,1-6-2.49c-1.34-1.06-2.3-2.48-3.53-3.66-2.68-2.53-6.42-3.54-9.64-5.34S140.58,415,141.32,411.41Z" transform="translate(0 4.34)"/><circle class="cls-5" cx="198.63" cy="384.76" r="15.78"/><circle class="cls-5" cx="233.56" cy="384.76" r="15.78"/><path class="cls-6" d="M331,416H114.19a9.55,9.55,0,0,1-9.55-9.54V274.92a9.57,9.57,0,0,1,9.55-9.55H331a9.57,9.57,0,0,1,9.55,9.55V406.43A9.55,9.55,0,0,1,331,416Z" transform="translate(0 4.34)"/><circle id="e793da3b-cee2-4a15-ae11-6dab45a6c728" class="cls-7" cx="222.05" cy="345.01" r="6.32"/><path class="cls-8" d="M394.39.94A4.16,4.16,0,0,1,391.05,0" transform="translate(0 4.34)"/><path class="cls-8" d="M398.16.57l-3.77.37" transform="translate(0 4.34)"/><path class="cls-8" d="M416.52,0H405.21q-3.52.26-7,.57" transform="translate(0 4.34)"/><line class="cls-8" x1="492" y1="4.34" x2="416.52" y2="4.34"/><line class="cls-8" x1="528.31" y1="106.69" x2="528.31"/><path class="cls-8" d="M391.05,0H0V587H492V106.69" transform="translate(0 4.34)"/></svg>