<svg xmlns="http://www.w3.org/2000/svg" viewBox="0 0 1918.9 543.97"><defs><style>.cls-1{fill:#29375b;}.cls-2{fill:#1a2238;}</style></defs><g id="Layer_2" data-name="Layer 2"><g id="Layer_1-2" data-name="Layer 1"><path class="cls-1" d="M135.52,32.87c106-41,242.79-29.41,291.35-25.31,86.77,7.35,81.05,19.11,164.9,26.15,111.15,9.35,140.85-9.66,276.08-13.21C1029,16.27,1038.1,41.92,1182.57,34.73c128-6.37,131.42-27,242.63-33.35,21.89-1.25,252.22-12.72,392.69,60.72,114.4,59.83,105.08,142.46,96.1,222.05-7.34,65.13-14.9,132.2-59.55,179.9-26.36,28.16-55.75,38.95-88.15,51.28-89.25,34-169.18,29.19-196.76,27.26-184.14-12.87-459.81-54.13-572.09-62.75-26.45-2-82-5.19-149.18,13.57A406.15,406.15,0,0,0,806,507.79c-90.38,35.26-239.66,26.11-374.22,20.64-174.58-7.1-261.28-5.22-341.2-46.78C21.24,445.61,9,403.89,6.63,395c-4.2-16.13-.49-19.85.7-59.07C9.61,261.28-5.2,257.47,2,200c8.63-69.12,32.18-95.63,39.45-103.42C56.88,80,81.41,53.78,135.52,32.87Z"/><path class="cls-2" d="M76.79,48c55.28-39.61,139.6-25.34,161-21.72,50.14,8.49,64.74,26.07,112.82,31.22,55,5.9,102.16-10,133.86-24.7h0C528.68,26.53,578.2,15.32,585.84,14c54.6-9.27,86.08,22.47,194,38a814.1,814.1,0,0,0,94.93,6.79C993.12,60.29,1062.5,25.29,1133.4,8.59c131.1-30.86,139.29,31,342.58,35.3,231.11,4.88,336.14-72.65,394.85-9.5,22.83,24.55,13.16,43,20.64,183.25,11.28,211.65,38,258,2.75,293.2-38.7,38.71-91,2.95-253.15-6.79-83-5-61.73,3.89-410,21.72-158.19,8.1-202.43,8.21-254.53,5.43-117.92-6.28-128.17-19.42-232.51-28.5-103.54-9-221.69-.66-458.14,13.57C148.56,524.54,93,531.84,53.4,491.84,20.22,458.27,19.82,409.28,19,311.3,17.91,177,17.2,90.67,76.79,48Z"/></g></g></svg>