<svg xmlns="http://www.w3.org/2000/svg" viewBox="0 0 1920 95"><defs><style>.cls-1{fill:#29375b;}.cls-2{fill:#1a2238;}</style></defs><g id="Layer_2" data-name="Layer 2"><g id="Layer_1-2" data-name="Layer 1"><path class="cls-1" d="M1920,0V25.42a273.21,273.21,0,0,1-42.67,34.8c-17.81,11.7-36.9,21-56.33,26.78-62.9,18.6-114.37-4.83-169.1-30.39C1592.41,28.82,1529.06-1.48,1443,17c-38.33,8.23-62.2,22.07-83.4,35.2C1330.34,70.33,1306.15,87.13,1256,86c-37.94-.85-63.37-11.34-86.13-23.84C1135,43,1106.48,19.19,1049,18c-49.23-1-76.15,15.49-106.12,32.33C916.08,65.39,886.84,80.71,837,84c-55.06,3.63-79.74-11.08-114.16-26.08C700.05,48,673,37.93,630,33c-79.32-9.1-110.14,11-174.72,28.91C423,70.82,382.35,79.16,323,83c-61.39,4-111.22,1.09-153.3-6.74C129.51,68.79,96.39,56.81,67,42,53,34.93,22.5,19.57,0,.19V0Z"/><path class="cls-2" d="M1920,0V82.23c-12.64-5.51-26.77-13.62-42.67-22C1842.45,41.84,1799,22.16,1744,25.93c-41.35,2.83-62.69,16.83-92.1,30.68C1628,67.87,1598.72,79,1549,84c-45.19,4.52-77.77,7.78-119-4-25-7.15-43.9-17.17-70.4-27.8A477.07,477.07,0,0,0,1296,31.69c-24.89-6.23-38.43-7.87-54-5.76-32.88,4.48-49.26,22.33-72.13,36.23q-2.38,1.46-4.87,2.84c-38.46,21.37-77.27,17.9-121,14-43.19-3.85-73.67-16.23-101.12-28.67C904.25,32.81,871.61,15.17,818,20.93c-22.69,2.44-42.59,8-47.35,9.86-18.7,7.15-32.26,17.09-47.81,27.13C704.18,70,682.67,82.18,646,89.9c-25.83,5.44-47.29,6.15-66.42,3.9-58-6.83-93.78-19.9-124.3-31.89-35.7-14-64.14-26.59-112.28-26-39.6.5-26.59,10.85-173.3,40.33L166,77c-27.87,5.56-60.1,11.54-100,3C50.85,76.76,21.62,70.5,0,53.75V0Z"/></g></g></svg>