<svg id="Layer_1" data-name="Layer 1" xmlns="http://www.w3.org/2000/svg" viewBox="0 0 1920 581"><defs><style>.cls-1{fill:#29375b;}.cls-2{fill:#1a2238;}</style></defs><path class="cls-1" d="M1920,752.18V1080H559.61c-73.79-10.44-138.81-15.06-247-10.14-49.91,2.26-95.62,6-137.55,10.14H0V547.21q5.84.48,11.94,1c48.52,4.28,110.59,10.94,202.66,5.74,74.79-4.23,121-14,155.83-24.21,59.9-17.53,85.87-36.16,165.17-29.32,79.1,6.82,143.1,32.27,202.33,54.2,63.6,23.55,121.7,43,187.07,31,11.64-2.13,49.3-10,80-16.69l10.3-2.25c104-22.86,105.2-27.11,127.7-29,50.92-4.34,82.41,14.24,116.62,34.77,30.24,18.14,62.6,37.79,112.38,44.49a211.06,211.06,0,0,0,53.78.65c31.56-3.8,52.62-13.54,78-24.13C1560.23,570,1588.43,558.27,1609,557c63-3.89,72.25,50.3,156,63,50,7.57,64.19-8.57,93,6C1900.49,647.48,1914.72,705.44,1920,752.18Z" transform="translate(0 -499)"/><path class="cls-2" d="M1920,605.54V1080H0V553.71C.5,564.66,3.12,578.3,13,587c31,27.33,110.06-14.94,127-24,54.76-29.29,64.61-54.14,106-60,26.75-3.79,49.78,2.75,64.24,8.32a401.42,401.42,0,0,1,60.19,18.45C444,558.38,496.6,598.2,599,591.94c58.67-3.6,101.06-20.31,138.93-37.29,53.62-24,98.19-48.55,167.07-37.1,54.37,9,64.13,30.57,110.3,49.19a278.89,278.89,0,0,0,37.7,12c79,19.6,114.83.48,206.62-6.25,15.39-1.12,32.37-1.91,51.38-2.1,87.23-.87,143,11.41,192.82,23.11,60.1,14.13,111.56,27.43,199.18,15.83,29.61-3.92,45-6,65.88-13.49,18.41-6.59,27.71-12.6,48.12-15.83a141.23,141.23,0,0,1,41-.58C1886.79,583.5,1908,596.55,1920,605.54Z" transform="translate(0 -499)"/></svg>